<svg width="149" height="45" viewBox="0 0 149 45" fill="none" xmlns="http://www.w3.org/2000/svg">
<path d="M143.481 0.505859H5.51852C2.47072 0.505859 0 2.97658 0 6.02438V39.1355C0 42.1833 2.47072 44.654 5.51852 44.654H143.481C146.529 44.654 149 42.1833 149 39.1355V6.02438C149 2.97658 146.529 0.505859 143.481 0.505859Z" fill="black"/>
<path d="M37.1179 22.0102C37.134 20.7754 37.4621 19.5647 38.0717 18.4908C38.6813 17.4169 39.5527 16.5146 40.6048 15.8679C39.9365 14.9135 39.055 14.128 38.0301 13.5738C37.0052 13.0196 35.8652 12.7121 34.7007 12.6755C32.2169 12.4151 29.8085 14.1548 28.5421 14.1548C27.2522 14.1548 25.3024 12.6947 23.2032 12.7376C21.8456 12.7814 20.5225 13.1762 19.3628 13.8835C18.2031 14.5907 17.2465 15.5863 16.586 16.7733C13.725 21.7262 15.8597 29.006 18.5994 33.0106C19.9708 34.9708 21.5729 37.1617 23.6706 37.0833C25.7225 36.9975 26.4888 35.7755 28.9652 35.7755C31.4195 35.7755 32.1385 37.0833 34.2776 37.0345C36.4789 36.999 37.8665 35.0655 39.1905 33.0861C40.1747 31.6915 40.9326 30.1503 41.4362 28.5193C40.1568 27.9782 39.0651 27.0723 38.2972 25.9148C37.5293 24.7573 37.1192 23.3993 37.1179 22.0102Z" fill="white"/>
<path d="M33.0765 10.0443C34.2775 8.6031 34.8692 6.75042 34.726 4.87988C32.8915 5.07246 31.197 5.9493 29.9802 7.3356C29.3853 8.01253 28.9296 8.80008 28.6392 9.65323C28.3488 10.5064 28.2294 11.4084 28.2879 12.3077C29.2053 12.3172 30.1129 12.1184 30.9423 11.7263C31.7718 11.3343 32.5015 10.7592 33.0765 10.0443Z" fill="white"/>
<path d="M58.6517 30.387H53.4301L52.1752 34.0954H49.9678L54.9157 20.3896H57.2147L62.1582 34.0954H59.9077L58.6517 30.387ZM53.9687 28.6774H58.1098L56.0679 22.6655H56.0139L53.9687 28.6774Z" fill="white"/>
<path d="M72.8446 29.0954C72.8446 32.2001 71.1825 34.1956 68.6748 34.1956C68.0394 34.2289 67.4074 34.0826 66.8513 33.7734C66.2952 33.4642 65.8374 33.0046 65.5304 32.4473H65.4829V37.3963H63.4312V24.0978H65.4178V25.76H65.4553C65.7766 25.2055 66.2421 24.7485 66.8024 24.4376C67.3627 24.1266 67.9969 23.9733 68.6373 23.994C71.1725 23.994 72.8446 25.9984 72.8446 29.0954ZM70.7366 29.0954C70.7366 27.0723 69.6914 25.7423 68.0954 25.7423C66.5281 25.7423 65.4741 27.0999 65.4741 29.0954C65.4741 31.1085 66.5281 32.4572 68.0954 32.4572C69.688 32.4572 70.7366 31.1361 70.7366 29.0954Z" fill="white"/>
<path d="M83.8432 29.0954C83.8432 32.2001 82.181 34.1956 79.6734 34.1956C79.0383 34.2285 78.4068 34.082 77.8511 33.7728C77.2954 33.4637 76.838 33.0043 76.5311 32.4473H76.4837V37.3963H74.4341V24.0978H76.4208V25.76H76.4583C76.7795 25.2055 77.2451 24.7485 77.8054 24.4376C78.3657 24.1266 78.9998 23.9733 79.6403 23.994C82.171 23.994 83.8432 25.9984 83.8432 29.0954ZM81.7351 29.0954C81.7351 27.0723 80.6899 25.7423 79.0939 25.7423C77.5267 25.7423 76.4726 27.0999 76.4726 29.0954C76.4726 31.1085 77.5267 32.4572 79.0939 32.4572C80.6888 32.4572 81.734 31.1361 81.734 29.0954H81.7351Z" fill="white"/>
<path d="M91.111 30.2718C91.2633 31.6305 92.5833 32.5234 94.3879 32.5234C96.1163 32.5234 97.3601 31.6305 97.3601 30.4054C97.3601 29.3414 96.6096 28.7046 94.8338 28.2675L93.0579 27.8393C90.5415 27.2311 89.3726 26.0546 89.3726 24.1441C89.3726 21.7788 91.4332 20.1553 94.3603 20.1553C97.2564 20.1553 99.242 21.7799 99.3082 24.1441H97.2376C97.114 22.7766 95.9827 21.951 94.3305 21.951C92.6782 21.951 91.548 22.7865 91.548 24.0017C91.548 24.9707 92.2699 25.5413 94.0369 25.9773L95.5467 26.3482C98.359 27.0104 99.5267 28.1428 99.5267 30.1471C99.5267 32.711 97.4837 34.3169 94.2355 34.3169C91.196 34.3169 89.1442 32.7485 89.0117 30.2696L91.111 30.2718Z" fill="white"/>
<path d="M103.954 21.7334V24.0986H105.855V25.7233H103.954V31.2319C103.954 32.0872 104.335 32.4868 105.168 32.4868C105.394 32.4829 105.62 32.4671 105.845 32.4393V34.054C105.469 34.1242 105.088 34.1561 104.706 34.149C102.683 34.149 101.893 33.3896 101.893 31.4515V25.7222H100.441V24.0975H101.893V21.7334H103.954Z" fill="white"/>
<path d="M106.955 29.0952C106.955 25.9507 108.807 23.9751 111.694 23.9751C114.581 23.9751 116.434 25.9507 116.434 29.0952C116.434 32.2396 114.601 34.2153 111.694 34.2153C108.787 34.2153 106.955 32.2474 106.955 29.0952ZM114.349 29.0952C114.349 26.9385 113.356 25.666 111.701 25.666C110.045 25.666 109.052 26.9485 109.052 29.0952C109.052 31.2606 110.039 32.5233 111.701 32.5233C113.362 32.5233 114.344 31.2606 114.344 29.0952H114.349Z" fill="white"/>
<path d="M118.125 24.0978H120.081V25.7986H120.128C120.26 25.2673 120.571 24.7977 121.009 24.4688C121.447 24.14 121.984 23.9719 122.531 23.993C122.768 23.992 123.004 24.0175 123.235 24.0691V25.9874C122.936 25.8963 122.625 25.8546 122.313 25.8637C122.015 25.8516 121.718 25.9042 121.442 26.0177C121.166 26.1313 120.918 26.3031 120.715 26.5215C120.512 26.7399 120.359 26.9997 120.265 27.283C120.172 27.5663 120.141 27.8664 120.175 28.1628V34.0952H118.125V24.0978Z" fill="white"/>
<path d="M132.692 31.155C132.417 32.9695 130.649 34.2133 128.388 34.2133C125.481 34.2133 123.676 32.2653 123.676 29.1363C123.676 26.0073 125.491 23.9688 128.301 23.9688C131.06 23.9688 132.804 25.8682 132.804 28.8979V29.601H125.746V29.7246C125.713 30.0923 125.759 30.4628 125.881 30.8114C126.003 31.1599 126.197 31.4786 126.451 31.7463C126.706 32.0139 127.014 32.2244 127.356 32.3638C127.698 32.5031 128.065 32.5681 128.434 32.5545C128.919 32.6 129.405 32.4879 129.821 32.2347C130.237 31.9816 130.56 31.6009 130.742 31.1494L132.692 31.155ZM125.759 28.175H130.754C130.773 27.8441 130.723 27.5129 130.608 27.2022C130.493 26.8915 130.314 26.608 130.084 26.3696C129.854 26.1312 129.577 25.9429 129.27 25.8168C128.964 25.6906 128.634 25.6292 128.303 25.6364C127.969 25.6343 127.638 25.6983 127.328 25.8249C127.019 25.9514 126.738 26.138 126.501 26.3738C126.264 26.6097 126.077 26.89 125.949 27.1988C125.821 27.5076 125.756 27.8386 125.757 28.1728L125.759 28.175Z" fill="white"/>
<path d="M52.5122 12.8523H53.3951C53.5467 12.8715 53.7007 12.859 53.8473 12.8157C53.9939 12.7723 54.1298 12.6989 54.2465 12.6002C54.3633 12.5016 54.4582 12.3797 54.5254 12.2424C54.5926 12.1051 54.6305 11.9554 54.6368 11.8027C54.6368 11.1956 54.1799 10.8027 53.4051 10.8027C53.2501 10.7817 53.0924 10.7919 52.9415 10.8327C52.7905 10.8734 52.6491 10.944 52.5258 11.0401C52.4024 11.1362 52.2995 11.256 52.223 11.3925C52.1466 11.5289 52.0982 11.6792 52.0806 11.8347H51.1138C51.1305 11.5519 51.2052 11.2755 51.3333 11.0229C51.4614 10.7702 51.6402 10.5466 51.8584 10.3659C52.0766 10.1853 52.3297 10.0514 52.6018 9.97279C52.874 9.89414 53.1594 9.87232 53.4404 9.9087C54.7372 9.9087 55.6478 10.6349 55.6478 11.6746C55.6509 12.0247 55.5338 12.3653 55.316 12.6395C55.0983 12.9137 54.7931 13.1049 54.4514 13.1812V13.2584C54.8564 13.2765 55.2378 13.4542 55.5122 13.7526C55.7867 14.051 55.9318 14.446 55.916 14.8511C55.886 15.1424 55.7982 15.4248 55.6577 15.6818C55.5172 15.9387 55.3268 16.165 55.0976 16.3474C54.8685 16.5297 54.6052 16.6645 54.3233 16.7438C54.0414 16.8231 53.7464 16.8453 53.4558 16.8091C53.1646 16.8488 52.8684 16.8294 52.5849 16.7522C52.3013 16.675 52.0362 16.5414 51.8054 16.3595C51.5745 16.1776 51.3827 15.9511 51.2413 15.6934C51.0999 15.4358 51.0119 15.1523 50.9824 14.8599H51.9647C52.0243 15.4901 52.6027 15.8963 53.4569 15.8963C54.3112 15.8963 54.8675 15.4394 54.8675 14.7926C54.8675 14.1458 54.3421 13.7374 53.4249 13.7374H52.5166L52.5122 12.8523Z" fill="white"/>
<path d="M57.0278 15.2474C57.0278 14.3523 57.6901 13.8369 58.8765 13.764L60.2231 13.6868V13.2574C60.2231 12.7321 59.8776 12.4363 59.2054 12.4363C58.6536 12.4363 58.2794 12.6372 58.1702 12.9881H57.2166C57.317 12.135 58.1205 11.5864 59.2485 11.5864C60.4946 11.5864 61.1976 12.2067 61.1976 13.2563V16.6557H60.2529V15.9571H60.1756C60.018 16.2077 59.7968 16.412 59.5344 16.5491C59.272 16.6862 58.978 16.7512 58.6823 16.7374C58.4736 16.7589 58.2627 16.7363 58.0633 16.6712C57.8638 16.6062 57.6802 16.5 57.5244 16.3596C57.3685 16.2192 57.2437 16.0477 57.1582 15.8561C57.0727 15.6646 57.0283 15.4572 57.0278 15.2474ZM60.2231 14.8225V14.4075L59.009 14.4848C58.3247 14.5311 58.0156 14.7629 58.0156 15.2011C58.0156 15.6392 58.4041 15.9085 58.9372 15.9085C59.0934 15.9243 59.2511 15.9085 59.401 15.8621C59.5509 15.8157 59.69 15.7396 59.8099 15.6384C59.9299 15.5372 60.0283 15.4129 60.0992 15.2729C60.1702 15.133 60.2123 14.9802 60.2231 14.8236V14.8225Z" fill="white"/>
<path d="M63.8035 12.5095V16.6561H62.8223V11.6895H66.0947V12.515L63.8035 12.5095Z" fill="white"/>
<path d="M72.039 14.1661C72.039 15.7455 71.2399 16.7355 69.9861 16.7355C69.6782 16.7566 69.3706 16.6893 69.0996 16.5415C68.8285 16.3937 68.6054 16.1715 68.4564 15.9011H68.3791V18.3061H67.3979V11.6839H68.3416V12.505H68.4145C68.566 12.2251 68.7919 11.9926 69.0673 11.8331C69.3428 11.6735 69.6569 11.5933 69.9751 11.6011C71.2399 11.6011 72.039 12.5867 72.039 14.1661ZM71.0302 14.1661C71.0302 13.1165 70.5336 12.4819 69.7058 12.4819C68.878 12.4819 68.3637 13.1297 68.3637 14.1705C68.3637 15.2113 68.8802 15.8548 69.7014 15.8548C70.5225 15.8548 71.0302 15.2213 71.0302 14.1661Z" fill="white"/>
<path d="M73.3446 18.4347V17.5904C73.4507 17.604 73.5577 17.6103 73.6647 17.6091C73.8735 17.6246 74.0807 17.5624 74.2465 17.4345C74.4123 17.3065 74.5251 17.1219 74.5631 16.916L74.636 16.6743L72.8369 11.6855H73.9053L75.1514 15.6335H75.2286L76.4703 11.6855H77.51L75.6591 16.8597C75.2342 18.0738 74.764 18.4568 73.7508 18.4568C73.6691 18.4568 73.4406 18.4479 73.3446 18.4347Z" fill="white"/>
<path d="M78.2759 15.244H79.2527C79.3487 15.6855 79.7593 15.9062 80.3332 15.9062C80.9866 15.9062 81.3872 15.6182 81.3872 15.1712C81.3872 14.6922 81.0274 14.4637 80.3332 14.4637H79.5893V13.7021H80.3199C80.9126 13.7021 81.215 13.4737 81.215 13.0587C81.215 12.6933 80.9226 12.4152 80.3199 12.4152C79.7681 12.4152 79.3708 12.6481 79.3067 13.0399H78.362C78.4326 12.5891 78.6773 12.1841 79.0434 11.9119C79.4096 11.6396 79.8679 11.522 80.3199 11.5841C81.5009 11.5841 82.1775 12.1183 82.1775 12.9582C82.183 13.1921 82.1081 13.4208 81.9653 13.606C81.8224 13.7912 81.6203 13.9218 81.3927 13.9758V14.0531C81.6636 14.088 81.9123 14.2211 82.0916 14.4272C82.2708 14.6333 82.3681 14.898 82.3651 15.1712C82.3651 16.1159 81.5605 16.7406 80.3332 16.7406C79.2482 16.745 78.3664 16.2484 78.2759 15.244Z" fill="white"/>
<path d="M83.7783 16.6561V11.6895H84.7507V15.1109H84.8279L87.1181 11.6895H88.0905V16.6561H87.1181V13.217H87.0453L84.7507 16.6561H83.7783Z" fill="white"/>
<path d="M93.4464 12.5101H91.8813V16.6568H90.899V12.5101H89.334V11.6846H93.4464V12.5101Z" fill="white"/>
<path d="M98.7301 15.3122C98.5959 15.7658 98.3067 16.1579 97.913 16.4201C97.5193 16.6823 97.046 16.798 96.5757 16.7471C96.2483 16.7557 95.9229 16.6931 95.6221 16.5634C95.3214 16.4337 95.0525 16.2401 94.834 15.996C94.6156 15.752 94.4529 15.4633 94.3572 15.1501C94.2616 14.8368 94.2352 14.5065 94.28 14.1821C94.2364 13.8566 94.2631 13.5255 94.3586 13.2113C94.454 12.897 94.6158 12.607 94.8331 12.3607C95.0503 12.1145 95.318 11.9178 95.6179 11.7839C95.9178 11.6501 96.2429 11.5823 96.5713 11.585C97.9542 11.585 98.7897 12.5298 98.7897 14.0904V14.4326H95.28V14.4878C95.2644 14.6703 95.2872 14.854 95.3469 15.0272C95.4066 15.2003 95.5019 15.3591 95.6267 15.4932C95.7514 15.6273 95.9029 15.7338 96.0712 15.8059C96.2396 15.8779 96.4213 15.9139 96.6044 15.9116C96.8388 15.9395 97.0762 15.8971 97.2865 15.7898C97.4968 15.6825 97.6704 15.5151 97.7854 15.3089L98.7301 15.3122ZM95.28 13.7108H97.7887C97.8012 13.544 97.7787 13.3765 97.7226 13.219C97.6665 13.0615 97.5781 12.9175 97.463 12.7962C97.348 12.6749 97.2088 12.579 97.0545 12.5147C96.9001 12.4504 96.734 12.4191 96.5669 12.4228C96.3971 12.4204 96.2286 12.4521 96.0713 12.516C95.914 12.5799 95.7712 12.6747 95.6512 12.7948C95.5312 12.9149 95.4365 13.0578 95.3728 13.2152C95.309 13.3725 95.2774 13.541 95.28 13.7108Z" fill="white"/>
<path d="M102.888 11.6846H105.128C106.101 11.6846 106.673 12.1768 106.673 12.9483C106.675 13.193 106.592 13.4307 106.439 13.6218C106.286 13.8128 106.073 13.9456 105.833 13.9979V14.0752C106.124 14.0941 106.395 14.2236 106.593 14.437C106.79 14.6504 106.898 14.9313 106.894 15.2219C106.894 16.0895 106.242 16.6568 105.151 16.6568H102.888V11.6846ZM103.86 12.4373V13.7242H104.832C105.425 13.7242 105.709 13.4957 105.709 13.0763C105.709 12.6889 105.462 12.4373 104.936 12.4373H103.86ZM103.86 14.4449V15.9007H105.023C105.603 15.9007 105.914 15.6447 105.914 15.1745C105.914 14.6767 105.563 14.4438 104.901 14.4438L103.86 14.4449Z" fill="white"/>
</svg>
