<svg width="27" height="30" viewBox="0 0 27 30" fill="none" xmlns="http://www.w3.org/2000/svg">
<path d="M16.5001 1H3.57142C2.12076 1 1 2.20644 1 3.62498V26.375C1 27.7935 2.12064 29 3.57142 29H22.4286C23.8794 29 25 27.7935 25 26.375V9.69533C25 9.17516 24.7973 8.67545 24.435 8.30222L17.9351 1.60689C17.5585 1.21893 17.0408 1 16.5001 1Z" stroke="#00A9D0" stroke-width="2"/>
<path d="M24.9892 8.99724C25.1151 9.12326 25.0259 9.33859 24.8477 9.33859H18.8571C17.832 9.33859 17 8.50663 17 7.48146V1.48319C17 1.30496 17.2155 1.21574 17.3415 1.34183L24.9892 8.99724Z" stroke="#00A9D0" stroke-width="2"/>
<path d="M19.0324 14.3657C19.3435 14.3657 19.4958 14.0945 19.4958 13.8318C19.4958 13.5597 19.337 13.2969 19.0324 13.2969H17.2607C16.9143 13.2969 16.7212 13.5838 16.7212 13.9004V18.2545C16.7212 18.6427 16.9422 18.8581 17.2412 18.8581C17.5384 18.8581 17.7603 18.6427 17.7603 18.2545V17.0595H18.8319C19.1643 17.0595 19.3305 16.7874 19.3305 16.5172C19.3305 16.2526 19.1643 15.9897 18.8319 15.9897H17.7603V14.3657H19.0324ZM13.044 13.2969H11.7477C11.3958 13.2969 11.146 13.5383 11.146 13.8967V18.2583C11.146 18.703 11.5053 18.8423 11.7625 18.8423H13.1229C14.733 18.8423 15.7962 17.7828 15.7962 16.1476C15.7954 14.4186 14.7944 13.2969 13.044 13.2969ZM13.1063 17.7671H12.316V14.3722H13.0283C14.1064 14.3722 14.5753 15.0956 14.5753 16.0938C14.5753 17.0279 14.1147 17.7671 13.1063 17.7671ZM8.35754 13.2969H7.07334C6.71025 13.2969 6.50781 13.5364 6.50781 13.9004V18.2545C6.50781 18.6427 6.73994 18.8581 7.05191 18.8581C7.36388 18.8581 7.59601 18.6427 7.59601 18.2545V16.9833H8.40107C9.39463 16.9833 10.2146 16.2794 10.2146 15.1475C10.2147 14.0398 9.42355 13.2969 8.35754 13.2969ZM8.33621 15.9619H7.59611V14.3193H8.33621C8.79307 14.3193 9.08372 14.6758 9.08372 15.141C9.08275 15.6054 8.79307 15.9619 8.33621 15.9619Z" fill="#00A9D0" stroke="#00A9D0" stroke-width="0.2"/>
</svg>
