<svg width="24" height="22" viewBox="0 0 24 22" fill="none" xmlns="http://www.w3.org/2000/svg">
<path d="M20.1613 5.31073H3.12903C1.9532 5.31073 1 6.27573 1 7.46611V18.243C1 19.4334 1.9532 20.3984 3.12903 20.3984H20.1613C21.3371 20.3984 22.2903 19.4334 22.2903 18.243V7.46611C22.2903 6.27573 21.3371 5.31073 20.1613 5.31073Z" stroke="white" stroke-width="1.5" stroke-linecap="round" stroke-linejoin="round"/>
<path d="M15.9033 8.00501V3.15539C15.9033 2.58374 15.679 2.03551 15.2797 1.6313C14.8805 1.22708 14.3389 1 13.7743 1H9.51624C8.95158 1 8.41006 1.22708 8.01079 1.6313C7.61152 2.03551 7.38721 2.58374 7.38721 3.15539V8.00501" stroke="white" stroke-width="1.5" stroke-linecap="round" stroke-linejoin="round"/>
</svg>
