<svg width="19" height="24" viewBox="0 0 19 24" fill="none" xmlns="http://www.w3.org/2000/svg">
<path d="M13.7742 3.15533H15.9032C16.4679 3.15533 17.0094 3.38242 17.4086 3.78663C17.8079 4.19084 18.0322 4.73907 18.0322 5.31072V20.3984C18.0322 20.97 17.8079 21.5183 17.4086 21.9225C17.0094 22.3267 16.4679 22.5538 15.9032 22.5538H3.12903C2.56437 22.5538 2.02285 22.3267 1.62358 21.9225C1.22431 21.5183 1 20.97 1 20.3984V5.31072C1 4.73907 1.22431 4.19084 1.62358 3.78663C2.02285 3.38242 2.56437 3.15533 3.12903 3.15533H5.25806" stroke="white" stroke-width="1.5" stroke-linecap="round" stroke-linejoin="round"/>
<path d="M12.7094 1H6.32233C5.73441 1 5.25781 1.48249 5.25781 2.07768V4.23305C5.25781 4.82824 5.73441 5.31073 6.32233 5.31073H12.7094C13.2973 5.31073 13.7739 4.82824 13.7739 4.23305V2.07768C13.7739 1.48249 13.2973 1 12.7094 1Z" stroke="white" stroke-width="1.5" stroke-linecap="round" stroke-linejoin="round"/>
</svg>
