<svg width="21" height="20" viewBox="0 0 21 20" fill="none" xmlns="http://www.w3.org/2000/svg">
<path d="M1.95708 17.9465C3.25981 19.2493 4.97043 19.9006 6.68163 19.9004C8.3925 19.9002 10.1038 19.2489 11.4063 17.9465L19.6045 9.74837C21.4653 7.88751 21.4651 4.85977 19.6043 2.99897C18.703 2.09753 17.5045 1.60111 16.2297 1.60111C14.9549 1.60111 13.7565 2.09753 12.855 2.99897L5.33168 10.5222C4.21522 11.6386 4.21522 13.4553 5.33168 14.5719C6.44828 15.6883 8.26498 15.6883 9.38145 14.5717L14.3354 9.61779C14.7081 9.24502 14.7081 8.64069 14.3354 8.26791C13.9627 7.89514 13.3583 7.89514 12.9855 8.26791L8.03157 13.2219C7.65943 13.5941 7.05382 13.5941 6.68156 13.2219C6.30943 12.8497 6.30943 12.2441 6.68156 11.872L14.2049 4.34885C14.7458 3.80802 15.4648 3.51015 16.2297 3.51015C16.9946 3.51015 17.7136 3.80802 18.2545 4.34885C19.3709 5.46538 19.3711 7.28202 18.2546 8.39856L10.0564 16.5966C8.19549 18.4574 5.1677 18.4573 3.30696 16.5966C2.40551 15.6952 1.90904 14.4967 1.90904 13.2219C1.90904 11.9471 2.40551 10.7486 3.30696 9.84713L11.505 1.64897C11.8777 1.27619 11.8777 0.671793 11.505 0.299086C11.1323 -0.0736218 10.5279 -0.0736854 10.1551 0.299086L1.95708 8.49725C0.69508 9.75925 0 11.4372 0 13.2219C0 15.0067 0.69508 16.6846 1.95708 17.9465Z" fill="#00A9D0"/>
</svg>
