<svg width="39" height="19" viewBox="0 0 39 19" fill="none" xmlns="http://www.w3.org/2000/svg">
<path fill-rule="evenodd" clip-rule="evenodd" d="M29.5157 0.279387C29.8882 -0.0931291 30.4922 -0.0931291 30.8647 0.279387L35.7057 5.12035C36.0782 5.49287 36.0782 6.09683 35.7057 6.46935C35.3332 6.84187 34.7292 6.84187 34.3567 6.46935L29.5157 1.62839C29.1432 1.25587 29.1432 0.651904 29.5157 0.279387Z" fill="#85999F"/>
<path fill-rule="evenodd" clip-rule="evenodd" d="M0.621928 1.35375C1.01568 1.00375 1.6186 1.03921 1.9686 1.43296L6.42005 6.44085C6.77005 6.8346 6.73458 7.43753 6.34083 7.78753C5.94709 8.13753 5.34416 8.10206 4.99416 7.70831L0.542711 2.70042C0.192712 2.30667 0.228179 1.70374 0.621928 1.35375Z" fill="#85999F"/>
<path fill-rule="evenodd" clip-rule="evenodd" d="M11.8277 16.8521C15.0763 16.8521 17.7099 14.2186 17.7099 10.9699C17.7099 7.72117 15.0763 5.08758 11.8277 5.08758C8.57896 5.08758 5.94537 7.72117 5.94537 10.9699C5.94537 14.2186 8.57896 16.8521 11.8277 16.8521ZM11.8277 18.7599C16.13 18.7599 19.6177 15.2722 19.6177 10.9699C19.6177 6.66754 16.13 3.17981 11.8277 3.17981C7.52532 3.17981 4.0376 6.66754 4.0376 10.9699C4.0376 15.2722 7.52532 18.7599 11.8277 18.7599Z" fill="#85999F"/>
<path fill-rule="evenodd" clip-rule="evenodd" d="M30.7466 16.8521C33.9953 16.8521 36.6289 14.2186 36.6289 10.9699C36.6289 7.72117 33.9953 5.08758 30.7466 5.08758C27.4979 5.08758 24.8643 7.72117 24.8643 10.9699C24.8643 14.2186 27.4979 16.8521 30.7466 16.8521ZM30.7466 18.7599C35.0489 18.7599 38.5366 15.2722 38.5366 10.9699C38.5366 6.66754 35.0489 3.17981 30.7466 3.17981C26.4443 3.17981 22.9565 6.66754 22.9565 10.9699C22.9565 15.2722 26.4443 18.7599 30.7466 18.7599Z" fill="#85999F"/>
<path fill-rule="evenodd" clip-rule="evenodd" d="M19.0861 9.85671C19.5561 9.85671 19.9841 9.60912 20.4008 9.39169C20.6549 9.25907 20.944 9.18408 21.2505 9.18408C21.557 9.18408 21.846 9.25907 22.1002 9.39169C22.5169 9.60912 22.9449 9.85671 23.4149 9.85671C24.4521 9.85671 25.1875 8.83496 24.4882 8.06898C23.6867 7.19112 22.5329 6.64038 21.2505 6.64038C19.9681 6.64038 18.8143 7.19112 18.0128 8.06898C17.3135 8.83496 18.0489 9.85671 19.0861 9.85671Z" fill="#85999F"/>
</svg>
