<svg width="149" height="45" viewBox="0 0 149 45" fill="none" xmlns="http://www.w3.org/2000/svg">
<path d="M143.481 0.852051H5.51852C2.47072 0.852051 0 3.32278 0 6.37057V39.4817C0 42.5295 2.47072 45.0002 5.51852 45.0002H143.481C146.529 45.0002 149 42.5295 149 39.4817V6.37057C149 3.32278 146.529 0.852051 143.481 0.852051Z" fill="black"/>
<path d="M75.201 24.8594C74.2733 24.8629 73.3675 25.1412 72.5979 25.6591C71.8283 26.177 71.2294 26.9113 70.8769 27.7694C70.5243 28.6274 70.4338 29.5706 70.6169 30.48C70.8 31.3894 71.2485 32.2242 71.9057 32.8789C72.5628 33.5336 73.3993 33.9789 74.3093 34.1586C75.2194 34.3383 76.1623 34.2443 77.019 33.8885C77.8757 33.5327 78.6078 32.9311 79.1228 32.1595C79.6378 31.388 79.9127 30.4811 79.9127 29.5535C79.9218 28.933 79.8061 28.3171 79.5723 27.7423C79.3385 27.1675 78.9915 26.6456 78.5519 26.2077C78.1123 25.7697 77.5891 25.4247 77.0134 25.193C76.4378 24.9614 75.8214 24.848 75.201 24.8594ZM75.201 32.3988C74.6297 32.4396 74.0594 32.3075 73.5643 32.0196C73.0693 31.7317 72.6723 31.3015 72.4252 30.7849C72.178 30.2682 72.0921 29.6892 72.1787 29.1231C72.2652 28.5569 72.5202 28.03 72.9105 27.6108C73.3007 27.1916 73.8081 26.8997 74.3666 26.7729C74.9251 26.6461 75.5088 26.6904 76.0417 26.9C76.5747 27.1097 77.0322 27.4749 77.3547 27.9481C77.6772 28.4214 77.8497 28.9808 77.8499 29.5535C77.867 29.9152 77.8117 30.2767 77.6871 30.6168C77.5625 30.9568 77.3712 31.2685 77.1244 31.5335C76.8776 31.7985 76.5803 32.0114 76.25 32.1599C75.9197 32.3083 75.563 32.3892 75.201 32.3977V32.3988ZM64.9222 24.8594C63.9944 24.8625 63.0884 25.1404 62.3185 25.658C61.5486 26.1757 60.9494 26.9098 60.5965 27.7678C60.2436 28.6258 60.1528 29.5692 60.3357 30.4787C60.5185 31.3882 60.9668 32.2232 61.6239 32.8781C62.281 33.533 63.1174 33.9786 64.0275 34.1584C64.9377 34.3383 65.8807 34.2445 66.7375 33.8887C67.5943 33.533 68.3265 32.9314 68.8417 32.1598C69.3568 31.3882 69.6317 30.4812 69.6317 29.5535C69.6408 28.9332 69.5251 28.3175 69.2915 27.7428C69.0578 27.1682 68.711 26.6464 68.2717 26.2085C67.8323 25.7705 67.3094 25.4254 66.734 25.1937C66.1586 24.9619 65.5424 24.8483 64.9222 24.8594ZM64.9222 32.3988C64.3509 32.4396 63.7806 32.3075 63.2856 32.0196C62.7905 31.7317 62.3935 31.3015 62.1464 30.7849C61.8992 30.2682 61.8133 29.6892 61.8999 29.1231C61.9865 28.5569 62.2414 28.03 62.6317 27.6108C63.0219 27.1916 63.5293 26.8997 64.0878 26.7729C64.6463 26.6461 65.23 26.6904 65.763 26.9C66.2959 27.1097 66.7534 27.4749 67.0759 27.9481C67.3984 28.4214 67.5709 28.9808 67.5711 29.5535C67.5882 29.9152 67.5329 30.2767 67.4083 30.6168C67.2837 30.9568 67.0924 31.2685 66.8456 31.5335C66.5988 31.7985 66.3015 32.0114 65.9712 32.1599C65.6409 32.3083 65.2842 32.3892 64.9222 32.3977V32.3988ZM52.6942 26.2998V28.2864H57.46C57.3913 29.2207 57.009 30.1043 56.3751 30.7941C55.8975 31.2808 55.3232 31.6621 54.6892 31.9132C54.0552 32.1644 53.3756 32.2798 52.6942 32.2521C51.2892 32.2521 49.9417 31.6939 48.9482 30.7004C47.9546 29.7068 47.3965 28.3593 47.3965 26.9543C47.3965 25.5492 47.9546 24.2017 48.9482 23.2082C49.9417 22.2147 51.2892 21.6565 52.6942 21.6565C54.0321 21.639 55.3228 22.1502 56.2857 23.0792L57.6907 21.6742C57.0335 21.0236 56.253 20.5109 55.395 20.1659C54.5371 19.821 53.6189 19.6508 52.6942 19.6654C51.7293 19.6535 50.7716 19.8333 49.8766 20.1944C48.9817 20.5555 48.1674 21.0906 47.4808 21.7687C46.7942 22.4469 46.2491 23.2546 45.8771 24.1451C45.505 25.0355 45.3135 25.9909 45.3135 26.9559C45.3135 27.921 45.505 28.8764 45.8771 29.7668C46.2491 30.6572 46.7942 31.4649 47.4808 32.1431C48.1674 32.8213 48.9817 33.3564 49.8766 33.7175C50.7716 34.0785 51.7293 34.2583 52.6942 34.2464C53.6385 34.2856 54.5803 34.1235 55.4572 33.7709C56.334 33.4183 57.1258 32.8833 57.7801 32.2013C58.9418 30.9334 59.561 29.2612 59.5052 27.5425C59.5086 27.125 59.4716 26.708 59.3948 26.2976L52.6942 26.2998ZM102.701 27.845C102.419 26.9948 101.882 26.2522 101.163 25.7178C100.444 25.1835 99.5777 24.8834 98.6823 24.8583C98.0792 24.8621 97.4831 24.9882 96.9301 25.2289C96.3771 25.4695 95.8787 25.8198 95.4649 26.2586C95.0511 26.6973 94.7306 27.2154 94.5227 27.7816C94.3148 28.3477 94.2238 28.9501 94.2553 29.5524C94.2418 30.1696 94.3527 30.7831 94.5816 31.3564C94.8105 31.9297 95.1526 32.451 95.5874 32.8892C96.0223 33.3273 96.541 33.6733 97.1125 33.9065C97.6841 34.1397 98.2968 34.2553 98.9141 34.2464C99.6873 34.2506 100.45 34.0627 101.132 33.6996C101.815 33.3365 102.397 32.8095 102.826 32.166L101.225 31.0987C100.986 31.4968 100.646 31.8257 100.241 32.0533C99.8361 32.2808 99.3787 32.3991 98.9141 32.3966C98.4358 32.4148 97.9632 32.2889 97.5574 32.0352C97.1516 31.7815 96.8314 31.4118 96.6382 30.974L102.915 28.378L102.701 27.845ZM96.2994 29.41C96.2773 29.0684 96.3236 28.7258 96.4355 28.4022C96.5474 28.0787 96.7228 27.7807 96.9512 27.5257C97.1797 27.2708 97.4567 27.0639 97.7661 26.9173C98.0754 26.7706 98.4109 26.6872 98.7529 26.6717C99.1088 26.6481 99.4638 26.7296 99.7737 26.9062C100.084 27.0829 100.335 27.3468 100.496 27.6651L96.2994 29.41ZM91.1959 33.9617H93.2587V20.1654H91.197L91.1959 33.9617ZM87.8174 25.9047H87.7468C87.4332 25.5641 87.0506 25.2944 86.6244 25.1136C86.1982 24.9327 85.7384 24.845 85.2756 24.8561C84.0659 24.9086 82.9231 25.4261 82.0857 26.3007C81.2482 27.1752 80.7808 28.3393 80.7808 29.5502C80.7808 30.761 81.2482 31.9251 82.0857 32.7997C82.9231 33.6743 84.0659 34.1918 85.2756 34.2442C85.7403 34.2565 86.2021 34.1673 86.6288 33.983C87.0556 33.7987 87.4371 33.5236 87.7468 33.177H87.8174V33.8524C87.8174 35.6481 86.8572 36.6117 85.3098 36.6117C84.7942 36.5995 84.2939 36.4341 83.8726 36.1365C83.4514 35.8389 83.1283 35.4226 82.9446 34.9407L81.1488 35.6879C81.4873 36.512 82.0642 37.2163 82.8056 37.7104C83.5469 38.2046 84.4189 38.4661 85.3098 38.4615C87.728 38.4615 89.7732 37.0388 89.7732 33.5721V25.1431H87.8185L87.8174 25.9047ZM85.4522 32.3944C84.7399 32.3332 84.0764 32.007 83.593 31.4803C83.1096 30.9535 82.8414 30.2646 82.8414 29.5496C82.8414 28.8347 83.1096 28.1458 83.593 27.619C84.0764 27.0923 84.7399 26.766 85.4522 26.7048C85.8068 26.7226 86.1542 26.8114 86.4737 26.9661C86.7933 27.1207 87.0786 27.3381 87.3125 27.6051C87.5464 27.8722 87.7243 28.1836 87.8354 28.5208C87.9467 28.8579 87.9889 29.214 87.9598 29.5678C87.9879 29.9197 87.9446 30.2736 87.8327 30.6083C87.7208 30.943 87.5425 31.2518 87.3085 31.516C87.0745 31.7802 86.7896 31.9945 86.4708 32.146C86.152 32.2975 85.8059 32.3831 85.4533 32.3977L85.4522 32.3944ZM112.362 20.161H107.428V33.9573H109.488V28.7357H112.363C112.945 28.7666 113.527 28.6788 114.074 28.4774C114.62 28.2761 115.121 27.9654 115.543 27.5645C115.966 27.1635 116.303 26.6806 116.533 26.1453C116.763 25.6099 116.882 25.0333 116.882 24.4505C116.882 23.8678 116.763 23.2911 116.533 22.7558C116.303 22.2204 115.966 21.7375 115.543 21.3366C115.121 20.9356 114.62 20.625 114.074 20.4236C113.527 20.2223 112.945 20.1344 112.363 20.1654L112.362 20.161ZM112.415 26.8108H109.488V22.0858H112.417C112.732 22.079 113.045 22.1352 113.337 22.251C113.63 22.3667 113.897 22.5398 114.122 22.7601C114.347 22.9803 114.526 23.2433 114.648 23.5336C114.77 23.8239 114.833 24.1356 114.833 24.4505C114.833 24.7654 114.77 25.0772 114.648 25.3674C114.526 25.6577 114.347 25.9207 114.122 26.141C113.897 26.3612 113.63 26.5343 113.337 26.6501C113.045 26.7659 112.732 26.822 112.417 26.8152L112.415 26.8108ZM125.148 24.8385C124.396 24.7942 123.648 24.9705 122.995 25.3458C122.343 25.7212 121.814 26.2791 121.474 26.951L123.303 27.7147C123.483 27.3822 123.757 27.1095 124.09 26.9298C124.423 26.7501 124.802 26.6712 125.179 26.7026C125.701 26.6527 126.222 26.8112 126.627 27.1437C127.033 27.4762 127.291 27.9556 127.344 28.4774V28.6198C126.683 28.2686 125.945 28.0859 125.197 28.0878C123.226 28.0878 121.223 29.1705 121.223 31.1947C121.242 31.6208 121.347 32.0386 121.531 32.4236C121.714 32.8085 121.973 33.1527 122.292 33.4357C122.611 33.7187 122.984 33.9349 123.388 34.0713C123.792 34.2077 124.219 34.2616 124.645 34.2299C125.163 34.2604 125.68 34.1514 126.142 33.9142C126.604 33.677 126.994 33.3202 127.272 32.8812H127.342V33.9462H129.329V28.6496C129.333 26.2004 127.504 24.8385 125.148 24.8385ZM124.9 32.3999C124.225 32.3999 123.284 32.0633 123.284 31.2289C123.284 30.1638 124.455 29.7555 125.467 29.7555C126.122 29.7388 126.77 29.8981 127.343 30.2168C127.267 30.8142 126.977 31.3637 126.527 31.7641C126.077 32.1644 125.497 32.3887 124.895 32.3955L124.9 32.3999ZM136.58 25.1398L134.219 31.1219H134.149L131.7 25.1398H129.481L133.155 33.5003L131.058 38.1513H133.205L138.868 25.1398H136.58ZM118.03 33.9694H120.09V20.1731H118.03V33.9694Z" fill="white"/>
<path d="M11.5172 9.16636C11.1563 9.59754 10.9735 10.1502 11.0062 10.7115V35.1321C10.9735 35.6934 11.1563 36.2461 11.5172 36.6773L11.5989 36.7567L25.2727 23.0885V22.7662L11.5989 9.09131L11.5172 9.16636Z" fill="url(#paint0_linear_333_991)"/>
<path d="M29.8297 27.648L25.2725 23.0886V22.7663L29.8308 18.208L29.9334 18.2665L35.3338 21.3348C36.879 22.2111 36.879 23.6449 35.3338 24.5223L29.9334 27.5906L29.8297 27.648Z" fill="url(#paint1_linear_333_991)"/>
<path d="M29.933 27.5893L25.271 22.9272L11.5166 36.6827C11.831 36.9598 12.2323 37.1181 12.6512 37.1304C13.07 37.1427 13.48 37.0082 13.8101 36.75L29.933 27.5893Z" fill="url(#paint2_linear_333_991)"/>
<path d="M29.933 18.2651L13.8101 9.10433C13.48 8.84619 13.07 8.71162 12.6512 8.72392C12.2323 8.73621 11.831 8.8946 11.5166 9.17166L25.2721 22.9271L29.933 18.2651Z" fill="url(#paint3_linear_333_991)"/>
<path opacity="0.2" d="M29.831 27.4873L13.8107 36.5884C13.4936 36.8291 13.1071 36.9604 12.709 36.9626C12.311 36.9648 11.923 36.8378 11.6033 36.6006L11.5205 36.6834L11.6022 36.7628C11.9218 37.0002 12.3098 37.1273 12.7079 37.1251C13.106 37.1229 13.4926 36.9915 13.8096 36.7507L29.9325 27.5899L29.831 27.4873Z" fill="black"/>
<path opacity="0.12" d="M35.3341 24.3596L29.8311 27.4875L29.9337 27.5901L35.3341 24.5218C35.6516 24.384 35.9264 24.1635 36.1298 23.8834C36.3333 23.6033 36.4579 23.2738 36.4908 22.9292C36.4224 23.2411 36.2822 23.5328 36.0814 23.781C35.8807 24.0293 35.6248 24.2274 35.3341 24.3596Z" fill="black"/>
<path opacity="0.25" d="M13.8104 9.26519L35.3326 21.4942C35.6238 21.6268 35.8801 21.8255 36.0809 22.0746C36.2817 22.3237 36.4216 22.6163 36.4893 22.929C36.4567 22.5842 36.3322 22.2544 36.1287 21.9741C35.9253 21.6938 35.6503 21.4732 35.3326 21.3353L13.8104 9.10625C12.2652 8.22991 11.0059 8.95836 11.0059 10.7243V10.8854C11.0059 9.11729 12.2674 8.39326 13.8104 9.26519Z" fill="white"/>
<path d="M46.4799 16.6049H45.6665V14.3864H46.3144C46.6321 14.0508 46.8723 13.6495 47.0178 13.2108C47.1633 12.7722 47.2107 12.3069 47.1565 11.8479V8.57764H51.5779V14.3864H52.3174V16.6049H51.504V15.1999H46.4799V16.6049ZM48.0064 11.8512C48.0612 12.7417 47.842 13.6276 47.3783 14.3897H50.7259V9.38665H48.0064V11.8512Z" fill="white" stroke="white" stroke-width="0.2" stroke-miterlimit="10"/>
<path d="M58.953 14.3453C58.3083 14.988 57.4351 15.3489 56.5248 15.3489C55.6145 15.3489 54.7413 14.988 54.0967 14.3453C53.7777 14.0223 53.527 13.6384 53.3594 13.2165C53.1918 12.7946 53.1107 12.3434 53.121 11.8895C53.1107 11.4357 53.1918 10.9845 53.3594 10.5626C53.527 10.1407 53.7777 9.75684 54.0967 9.43381C54.4147 9.11345 54.793 8.85919 55.2097 8.68569C55.6264 8.51218 56.0734 8.42285 56.5248 8.42285C56.9762 8.42285 57.4232 8.51218 57.8399 8.68569C58.2566 8.85919 58.6349 9.11345 58.953 9.43381C59.2721 9.75595 59.5234 10.1389 59.6917 10.56C59.8601 10.9811 59.9421 11.4317 59.933 11.8851C59.9431 12.34 59.8615 12.7922 59.6931 13.2149C59.5247 13.6375 59.273 14.022 58.953 14.3453ZM54.7258 13.7934C55.2032 14.2701 55.8502 14.5378 56.5248 14.5378C57.1994 14.5378 57.8464 14.2701 58.3238 13.7934C58.5686 13.5428 58.7601 13.2452 58.8866 12.9186C59.0131 12.5919 59.0721 12.243 59.06 11.8929C59.0721 11.5428 59.0131 11.1938 58.8866 10.8672C58.7601 10.5405 58.5686 10.2429 58.3238 9.99228C57.8464 9.51564 57.1994 9.24793 56.5248 9.24793C55.8502 9.24793 55.2032 9.51564 54.7258 9.99228C54.4813 10.2431 54.2902 10.5408 54.1639 10.8674C54.0375 11.194 53.9786 11.5429 53.9907 11.8929C53.9791 12.2423 54.0382 12.5905 54.1645 12.9165C54.2908 13.2426 54.4817 13.5397 54.7258 13.7901V13.7934Z" fill="white" stroke="white" stroke-width="0.2" stroke-miterlimit="10"/>
<path d="M64.2122 15.3465C63.7565 15.3546 63.304 15.2706 62.8817 15.0994C62.4594 14.9282 62.076 14.6734 61.7547 14.3503C61.4333 14.0272 61.1806 13.6425 61.0117 13.2193C60.8429 12.796 60.7613 12.343 60.7719 11.8875C60.7616 11.432 60.8434 10.9792 61.0124 10.5562C61.1814 10.1331 61.4341 9.7486 61.7554 9.42565C62.0767 9.10271 62.46 8.84801 62.8821 8.67684C63.3043 8.50567 63.7567 8.42156 64.2122 8.42956C64.6722 8.41598 65.1295 8.50627 65.5498 8.69372C65.9702 8.88117 66.3429 9.16096 66.6403 9.51229L66.0476 10.0862C65.8296 9.81117 65.5497 9.59146 65.2308 9.44494C64.9119 9.29842 64.5629 9.22922 64.2122 9.24299C63.8742 9.23528 63.5381 9.29604 63.2242 9.42161C62.9103 9.54717 62.625 9.73495 62.3855 9.97364C62.136 10.2239 61.941 10.5232 61.8128 10.8526C61.6845 11.182 61.6259 11.5343 61.6405 11.8875C61.6258 12.2406 61.6844 12.593 61.8127 12.9224C61.9409 13.2518 62.1359 13.551 62.3855 13.8013C62.625 14.04 62.9103 14.2277 63.2242 14.3533C63.5381 14.4789 63.8742 14.5396 64.2122 14.5319C64.6016 14.5337 64.9866 14.4483 65.3387 14.2819C65.6909 14.1156 66.0014 13.8725 66.2474 13.5706L66.839 14.1622C66.5291 14.5317 66.1402 14.8271 65.7011 15.0264C65.2345 15.2418 64.726 15.3512 64.2122 15.3465Z" fill="white" stroke="white" stroke-width="0.2" stroke-miterlimit="10"/>
<path d="M70.2805 15.1999H69.4295V9.38665H67.5786V8.57764H72.1292V9.38665H70.2805V15.1999Z" fill="white" stroke="white" stroke-width="0.2" stroke-miterlimit="10"/>
<path d="M77.972 8.57764L75.4666 14.1635C75.3657 14.4979 75.1622 14.7921 74.8849 15.0044C74.6076 15.2168 74.2705 15.3365 73.9214 15.3466C73.693 15.3422 73.4677 15.2919 73.2592 15.1988L73.4799 14.4129C73.6141 14.4908 73.7662 14.5323 73.9214 14.5332C74.0818 14.5445 74.2418 14.506 74.3794 14.4228C74.5137 14.3103 74.6173 14.1657 74.6807 14.0023L74.9291 13.4704L72.7007 8.57764H73.6995L75.3363 12.3788H75.3705L76.9698 8.57764H77.972Z" fill="white" stroke="white" stroke-width="0.2" stroke-miterlimit="10"/>
<path d="M78.9355 15.1999V8.57764H83.7267V15.1999H82.8758V9.38665H79.7854V15.1954L78.9355 15.1999Z" fill="white" stroke="white" stroke-width="0.2" stroke-miterlimit="10"/>
<path d="M85.2432 15.1999V8.57764H86.093V11.4164H89.4041V8.57764H90.2562V15.1999H89.4041V12.2121H86.093V15.1999H85.2432Z" fill="white" stroke="white" stroke-width="0.2" stroke-miterlimit="10"/>
<path d="M97.1888 14.3453C96.5441 14.988 95.671 15.3489 94.7607 15.3489C93.8503 15.3489 92.9772 14.988 92.3325 14.3453C92.0136 14.0223 91.7628 13.6384 91.5952 13.2165C91.4276 12.7946 91.3465 12.3434 91.3568 11.8895C91.3465 11.4357 91.4276 10.9845 91.5952 10.5626C91.7628 10.1407 92.0136 9.75684 92.3325 9.43381C92.6505 9.11345 93.0288 8.85919 93.4456 8.68569C93.8623 8.51218 94.3092 8.42285 94.7607 8.42285C95.2121 8.42285 95.659 8.51218 96.0758 8.68569C96.4925 8.85919 96.8708 9.11345 97.1888 9.43381C97.508 9.75595 97.7592 10.1389 97.9276 10.56C98.0959 10.9811 98.178 11.4317 98.1689 11.8851C98.179 12.34 98.0974 12.7922 97.9291 13.2149C97.7607 13.6376 97.5089 14.022 97.1888 14.3453ZM92.9616 13.7934C93.439 14.2701 94.086 14.5378 94.7607 14.5378C95.4353 14.5378 96.0823 14.2701 96.5597 13.7934C96.8045 13.5428 96.9959 13.2452 97.1225 12.9186C97.249 12.5919 97.308 12.243 97.2959 11.8929C97.3087 11.5424 97.2503 11.1929 97.1242 10.8656C96.998 10.5384 96.8067 10.2401 96.5619 9.98897C96.0845 9.51233 95.4375 9.24462 94.7629 9.24462C94.0883 9.24462 93.4412 9.51233 92.9638 9.98897C92.7194 10.2398 92.5283 10.5375 92.402 10.8641C92.2757 11.1907 92.2167 11.5396 92.2288 11.8895C92.2165 12.2394 92.275 12.5881 92.401 12.9147C92.5269 13.2413 92.7176 13.5391 92.9616 13.7901V13.7934Z" fill="white" stroke="white" stroke-width="0.2" stroke-miterlimit="10"/>
<path d="M101.639 15.2001V8.57786H104.034C104.532 8.57031 105.014 8.75399 105.381 9.09108C105.565 9.25095 105.711 9.44926 105.81 9.672C105.909 9.89475 105.958 10.1365 105.954 10.3802C105.959 10.6763 105.873 10.9668 105.707 11.2124C105.546 11.4523 105.32 11.6416 105.055 11.7587V11.7952C105.375 11.9011 105.656 12.1007 105.861 12.368C106.07 12.6378 106.181 12.9705 106.175 13.3116C106.181 13.5667 106.13 13.8198 106.027 14.0531C105.924 14.2864 105.771 14.4941 105.578 14.6615C105.194 15.014 104.689 15.206 104.168 15.1979L101.639 15.2001ZM102.489 11.4166H104.034C104.178 11.4228 104.322 11.3974 104.456 11.3423C104.589 11.2872 104.709 11.2037 104.807 11.0976C104.992 10.9137 105.096 10.6643 105.098 10.4036C105.1 10.1428 104.998 9.89204 104.816 9.70585C104.722 9.60194 104.607 9.51987 104.479 9.4655C104.35 9.41113 104.211 9.38579 104.072 9.39129H102.495L102.489 11.4166ZM102.489 14.3856H104.201C104.351 14.3906 104.5 14.3624 104.637 14.3031C104.775 14.2437 104.898 14.1547 104.997 14.0423C105.189 13.8401 105.298 13.5722 105.301 13.2929C105.293 12.999 105.168 12.7204 104.955 12.5178C104.742 12.3152 104.457 12.205 104.163 12.2113H102.495L102.489 14.3856Z" fill="white" stroke="white" stroke-width="0.2" stroke-miterlimit="10"/>
<defs>
<linearGradient id="paint0_linear_333_991" x1="24.0597" y1="10.4654" x2="5.53732" y2="28.9878" gradientUnits="userSpaceOnUse">
<stop stop-color="#00A0FF"/>
<stop offset="0.007" stop-color="#00A1FF"/>
<stop offset="0.26" stop-color="#00BEFF"/>
<stop offset="0.512" stop-color="#00D2FF"/>
<stop offset="0.76" stop-color="#00DFFF"/>
<stop offset="1" stop-color="#00E3FF"/>
</linearGradient>
<linearGradient id="paint1_linear_333_991" x1="37.3426" y1="22.9274" x2="10.6362" y2="22.9274" gradientUnits="userSpaceOnUse">
<stop stop-color="#FFE000"/>
<stop offset="0.409" stop-color="#FFBD00"/>
<stop offset="0.775" stop-color="#FFA500"/>
<stop offset="1" stop-color="#FF9C00"/>
</linearGradient>
<linearGradient id="paint2_linear_333_991" x1="27.4" y1="25.4602" x2="2.28192" y2="50.5783" gradientUnits="userSpaceOnUse">
<stop stop-color="#FF3A44"/>
<stop offset="1" stop-color="#C31162"/>
</linearGradient>
<linearGradient id="paint3_linear_333_991" x1="8.05318" y1="1.04619" x2="19.269" y2="12.2631" gradientUnits="userSpaceOnUse">
<stop stop-color="#32A071"/>
<stop offset="0.069" stop-color="#2DA771"/>
<stop offset="0.476" stop-color="#15CF74"/>
<stop offset="0.801" stop-color="#06E775"/>
<stop offset="1" stop-color="#00F076"/>
</linearGradient>
</defs>
</svg>
