<svg width="23" height="23" viewBox="0 0 23 23" fill="none" xmlns="http://www.w3.org/2000/svg">
<circle cx="11.5" cy="11.5" r="11.5" fill="#F3F5F7"/>
<path d="M11.5147 5.55C10.034 5.55 8.82979 6.75421 8.82979 8.23496C8.82979 9.71571 10.034 10.9199 11.5147 10.9199C12.9955 10.9199 14.1997 9.71568 14.1997 8.23496C14.1997 6.75424 12.9955 5.55 11.5147 5.55ZM11.5147 9.80991C10.6469 9.80991 9.93979 9.10285 9.93979 8.23496C9.93979 7.36707 10.6469 6.66001 11.5147 6.66001C12.3826 6.66001 13.0897 7.36707 13.0897 8.23496C13.0897 9.10286 12.3827 9.80991 11.5147 9.80991Z" fill="white" stroke="white" stroke-width="0.4"/>
<path d="M11.515 11.4689C8.88989 11.4689 6.6999 13.3053 6.6999 15.6248C6.6999 15.931 6.97854 16.1291 7.25492 16.1291C7.53131 16.1291 7.80994 15.931 7.80994 15.6248C7.80994 13.9172 9.44197 12.4776 11.515 12.4776C13.5881 12.4776 15.2201 13.9172 15.2201 15.6248C15.2201 15.931 15.4988 16.1291 15.7751 16.1291C16.0515 16.1291 16.3302 15.931 16.3302 15.6248C16.3302 13.3053 14.1402 11.4689 11.515 11.4689Z" fill="white" stroke="white" stroke-width="0.4"/>
</svg>
