<svg width="15" height="18" viewBox="0 0 15 18" fill="none" xmlns="http://www.w3.org/2000/svg">
<path d="M6.62999 16.9937L6.61015 16.9929H6.59031C3.58975 16.9929 1 14.2885 1 10.749C1 9.06451 2.06244 6.59037 3.6677 4.47959C4.45516 3.44413 5.33225 2.55223 6.19831 1.92832C6.55373 1.67228 6.89266 1.47173 7.21089 1.32358C7.0882 2.28725 7.05959 3.2838 7.13358 4.21001C7.19142 4.93387 7.31386 5.64004 7.51736 6.26775C7.71775 6.88586 8.01689 7.49045 8.46822 7.94696L8.61553 8.09597L8.81027 8.1733C9.28886 8.36336 9.83979 8.41219 10.349 8.13081C10.8102 7.876 11.0437 7.45144 11.168 7.15426C11.2165 7.03834 11.2576 6.91878 11.2928 6.80153C11.2929 6.80166 11.293 6.8018 11.2931 6.80193C11.6167 7.29337 12.0256 7.97538 12.5433 8.90061C14.4658 12.3361 11.8369 17.2005 6.62999 16.9937Z" stroke="#FF3A44" stroke-width="2"/>
<path d="M7.09947 16.9974L7.08118 16.9967H7.06288C5.83578 16.9967 4.81836 15.9849 4.81836 14.7087C4.81836 14.0565 5.19496 12.8819 5.84031 11.8342C6.00221 11.5713 6.17165 11.3323 6.3428 11.1239C6.3944 11.7164 6.54842 12.3438 6.87658 12.8151C7.08862 13.1196 7.37709 13.3942 7.59891 13.6054C7.65333 13.6572 7.70375 13.7052 7.74803 13.7489C8.00839 14.0056 8.28918 14.313 8.58785 14.8051C8.82652 15.1983 8.90131 15.8157 8.70881 16.2716C8.62192 16.4774 8.48219 16.6501 8.26467 16.7762C8.04157 16.9054 7.67796 17.0186 7.09947 16.9974Z" stroke="#FF3A44" stroke-width="2"/>
</svg>
