<svg width="76" height="76" viewBox="0 0 76 76" fill="none" xmlns="http://www.w3.org/2000/svg">
<g opacity="0.28">
<path fill-rule="evenodd" clip-rule="evenodd" d="M21.2555 1.01181C21.9033 0.36396 22.782 0 23.6982 0H52.3018C53.218 0 54.0967 0.36396 54.7445 1.01181L74.9882 21.2555C75.636 21.9033 76 22.782 76 23.6982V52.3018C76 53.218 75.636 54.0967 74.9882 54.7445L54.7445 74.9882C54.0967 75.636 53.218 76 52.3018 76H23.6982C22.782 76 21.9033 75.636 21.2555 74.9882L1.01181 54.7445C0.36396 54.0967 0 53.218 0 52.3018V23.6982C0 22.782 0.36396 21.9033 1.01181 21.2555L21.2555 1.01181ZM25.1291 6.90909L6.90909 25.1291V50.8709L25.1291 69.0909H50.8709L69.0909 50.8709V25.1291L50.8709 6.90909H25.1291Z" fill="#FF9898"/>
<path fill-rule="evenodd" clip-rule="evenodd" d="M38.0004 20.8789C40.076 20.8789 41.7587 22.4369 41.7587 24.3588V38.2782C41.7587 40.2001 40.076 41.7581 38.0004 41.7581C35.9248 41.7581 34.2422 40.2001 34.2422 38.2782V24.3588C34.2422 22.4369 35.9248 20.8789 38.0004 20.8789Z" fill="#FF9898"/>
<path fill-rule="evenodd" clip-rule="evenodd" d="M34.2422 52.1995C34.2422 50.1229 35.9164 48.4395 37.9817 48.4395H38.0191C40.0844 48.4395 41.7587 50.1229 41.7587 52.1995C41.7587 54.276 40.0844 55.9595 38.0191 55.9595H37.9817C35.9164 55.9595 34.2422 54.276 34.2422 52.1995Z" fill="#FF9898"/>
</g>
</svg>
