<svg width="23" height="22" viewBox="0 0 23 22" fill="none" xmlns="http://www.w3.org/2000/svg">
<path d="M17.6094 3.78125C16.8906 3.78125 16.1719 4.35417 16.1719 5.15625C16.1719 5.84375 16.7708 6.53125 17.6094 6.53125C18.3281 6.53125 19.0469 5.95833 19.0469 5.15625C19.0469 4.35417 18.4479 3.78125 17.6094 3.78125ZM11.5 14.6667C9.34375 14.6667 7.66667 13.0625 7.66667 11C7.66667 8.9375 9.34375 7.33333 11.5 7.33333C13.6562 7.33333 15.3333 8.9375 15.3333 11C15.3333 13.0625 13.6562 14.6667 11.5 14.6667ZM11.5 5.38542C8.26562 5.38542 5.63021 7.90625 5.63021 11C5.63021 14.0938 8.26562 16.6146 11.5 16.6146C14.7344 16.6146 17.3698 14.0938 17.3698 11C17.3698 7.90625 14.7344 5.38542 11.5 5.38542ZM11.5 0C8.38542 0 8.02604 0 6.70833 0.114583C2.63542 0.229167 0.239583 2.52083 0.119792 6.41667C0 7.67708 0 8.02083 0 11C0 13.9792 0 14.3229 0.119792 15.5833C0.239583 19.4792 2.63542 21.7708 6.70833 21.8854C7.90625 21.8854 8.38542 22 11.5 22C14.6146 22 14.974 22 16.2917 21.8854C20.3646 21.7708 22.7604 19.4792 22.8802 15.5833C22.8802 14.4375 23 13.9792 23 11C23 8.02083 23 7.67708 22.8802 6.41667C22.7604 2.52083 20.3646 0.229167 16.2917 0.114583C14.974 0 14.6146 0 11.5 0ZM11.5 1.94792C14.6146 1.94792 14.974 1.94792 16.1719 2.0625C19.2865 2.17708 20.724 3.66667 20.8437 6.53125C20.8437 7.67708 20.9635 8.02083 20.9635 11C20.9635 13.9792 20.9635 14.3229 20.8437 15.4687C20.724 18.4479 19.2865 19.8229 16.1719 19.9375C14.974 19.9375 14.6146 20.0521 11.5 20.0521C8.38542 20.0521 8.02604 20.0521 6.82812 19.9375C3.71354 19.8229 2.27604 18.3333 2.15625 15.4687C2.15625 14.3229 2.03646 13.9792 2.03646 11C2.03646 8.02083 2.03646 7.67708 2.15625 6.53125C2.27604 3.55208 3.71354 2.17708 6.82812 2.0625C8.02604 1.94792 8.38542 1.94792 11.5 1.94792Z" fill="#85999F"/>
</svg>
