<svg width="288" height="64" viewBox="0 0 288 64" fill="none" xmlns="http://www.w3.org/2000/svg">
<g clip-path="url(#clip0_236_77)">
<path d="M94.7907 21.8841C95.4698 22.5312 96.0005 23.3211 96.3453 24.1984C96.6902 25.0756 96.8408 26.0188 96.7865 26.9613C96.8232 28.3902 96.5332 29.8083 95.9391 31.1049C95.345 32.4015 94.4628 33.5415 93.3615 34.4358C91.5069 35.8128 89.2501 36.5212 86.9514 36.4479C85.9628 36.4979 84.9743 36.3481 84.0436 36.007C83.1128 35.666 82.2586 35.1406 81.5307 34.4615C80.9011 33.8243 80.4098 33.0612 80.088 32.2209C79.7662 31.3806 79.621 30.4816 79.6617 29.5812C79.6313 28.2303 79.8942 26.889 80.432 25.6522C80.9697 24.4154 81.7691 23.3132 82.7738 22.4235C84.6575 20.8426 87.052 20.0224 89.4968 20.1204C91.4152 20.0328 93.2986 20.6603 94.7907 21.8841ZM84.8372 24.2215C84.1652 24.8866 83.6399 25.6882 83.2959 26.5737C82.9519 27.4591 82.797 28.4083 82.8415 29.3587C82.7922 30.5345 83.168 31.6881 83.8985 32.6036C84.3375 33.0647 84.8731 33.4203 85.4659 33.6441C86.0586 33.8678 86.6934 33.9541 87.3235 33.8964C88.7921 33.9651 90.2342 33.4835 91.3742 32.5437C92.1002 31.8842 92.6725 31.0698 93.0498 30.1592C93.4271 29.2486 93.6 28.2646 93.556 27.2781C93.6259 26.065 93.2357 24.8706 92.4651 23.939C92.0131 23.5143 91.4793 23.1887 90.8973 22.9825C90.3152 22.7762 89.6974 22.6938 89.0824 22.7403C87.5301 22.6504 86.0052 23.1825 84.8372 24.2215Z" fill="#404546"/>
<path d="M113.319 23.4339C111.828 22.9561 110.274 22.7107 108.71 22.7061C107.029 22.631 105.379 23.1789 104.068 24.2473C103.364 24.8621 102.806 25.629 102.434 26.4914C102.062 27.3539 101.886 28.2899 101.92 29.2303C101.89 29.8122 101.977 30.394 102.175 30.9412C102.372 31.4884 102.677 31.9897 103.07 32.4153C103.596 32.9028 104.217 33.2747 104.892 33.5075C105.567 33.7404 106.283 33.8291 106.994 33.7681C108.662 33.7635 110.32 33.5096 111.915 33.0146L112.414 35.352C110.491 36.1088 108.44 36.481 106.376 36.448C103.915 36.448 101.92 35.7887 100.617 34.5301C99.9749 33.8904 99.4709 33.1224 99.1375 32.2748C98.8041 31.4273 98.6486 30.5187 98.6807 29.607C98.6549 28.2124 98.9466 26.8306 99.5332 25.5685C100.12 24.3065 100.986 23.1981 102.063 22.3294C104.04 20.8158 106.47 20.036 108.947 20.1205C110.848 20.0755 112.736 20.4403 114.486 21.1907L113.319 23.4339Z" fill="#404546"/>
<path d="M119.949 20.4029L120.355 22.0126C121.871 20.7533 123.781 20.0825 125.742 20.1204C126.909 20.0604 128.073 20.2989 129.125 20.8139C129.88 21.1829 130.517 21.762 130.96 22.4835C132.757 20.9357 135.045 20.0965 137.404 20.1204C139.493 20.1204 141.049 20.6256 142.106 21.73C142.563 22.2316 142.913 22.8239 143.133 23.4694C143.353 24.1149 143.438 24.7996 143.383 25.4801C143.377 26.1975 143.315 26.9133 143.197 27.6206L141.86 36.1825H138.681L140.051 27.5178C140.148 26.9659 140.21 26.4083 140.237 25.8483C140.302 25.0391 140.057 24.2356 139.552 23.6051C138.994 23.0058 138.063 22.7489 136.719 22.7489C134.892 22.7552 133.124 23.3993 131.712 24.5726C131.762 24.9385 131.781 25.3079 131.772 25.6771C131.776 26.3313 131.723 26.9847 131.611 27.6292L130.275 36.191H127.121L128.457 27.5264C128.541 27.0143 128.584 26.496 128.584 25.9767C128.646 25.131 128.403 24.291 127.899 23.6136C127.332 22.9801 126.436 22.7575 125.091 22.7575C123.353 22.7353 121.664 23.3426 120.33 24.4698L118.495 36.1996H115.281L117.742 20.4372L119.949 20.4029Z" fill="#404546"/>
<path d="M160.017 35.4205C157.966 36.1944 155.786 36.5578 153.598 36.4907C151.061 36.4907 148.93 35.7373 147.721 34.4102C146.594 33.1175 145.99 31.442 146.03 29.7183C146.012 28.3053 146.306 26.9061 146.892 25.6232C147.477 24.3403 148.338 23.2061 149.412 22.3037C151.285 20.8716 153.578 20.1177 155.924 20.1632C157.583 20.0573 159.237 20.441 160.685 21.2677C161.313 21.6214 161.832 22.1451 162.183 22.7801C162.534 23.4152 162.703 24.1367 162.672 24.8637C162.681 25.617 162.477 26.3571 162.087 26.9982C161.696 27.6393 161.134 28.155 160.465 28.4854C158.165 29.6498 155.078 29.8382 151.907 29.8382C151.03 29.8555 150.154 29.8039 149.285 29.684C149.246 30.2337 149.316 30.7857 149.494 31.3068C149.671 31.8278 149.951 32.3069 150.317 32.715C151.163 33.5711 152.431 33.9393 154.241 33.9393C156.072 33.9251 157.893 33.6601 159.653 33.1516L160.017 35.4205ZM157.649 26.7816C159.205 26.4391 159.645 25.874 159.645 24.8637C159.641 24.5437 159.552 24.2306 159.387 23.9577C159.221 23.6849 158.986 23.4624 158.706 23.314C157.777 22.8269 156.729 22.619 155.687 22.7147C154.235 22.6651 152.808 23.1114 151.636 23.9819C150.572 24.8351 149.853 26.0534 149.615 27.4066C153.632 27.3724 155.966 27.2182 157.649 26.7388V26.7816Z" fill="#404546"/>
<path d="M179.349 21.884C180.027 22.5322 180.556 23.3223 180.901 24.1993C181.246 25.0763 181.397 26.0189 181.345 26.9612C181.379 28.3898 181.089 29.8073 180.495 31.1036C179.901 32.3998 179.02 33.5401 177.92 34.4358C176.062 35.8128 173.802 36.521 171.501 36.4478C170.513 36.4979 169.524 36.348 168.593 36.0069C167.663 35.6659 166.808 35.1405 166.08 34.4614C165.451 33.8242 164.959 33.0611 164.638 32.2208C164.316 31.3805 164.171 30.4815 164.211 29.5812C164.183 28.2296 164.447 26.8881 164.986 25.6513C165.526 24.4146 166.326 23.3127 167.332 22.4234C169.215 20.8418 171.61 20.0215 174.055 20.1203C175.973 20.0351 177.856 20.6623 179.349 21.884ZM169.404 24.2214C168.733 24.8869 168.209 25.6889 167.866 26.5743C167.524 27.4598 167.37 28.4087 167.417 29.3586C167.367 30.5344 167.743 31.688 168.474 32.6035C168.908 33.0588 169.437 33.4109 170.022 33.6345C170.606 33.858 171.233 33.9475 171.856 33.8963C173.325 33.9634 174.766 33.482 175.907 32.5436C176.632 31.8837 177.203 31.069 177.579 30.1584C177.955 29.2477 178.126 28.2639 178.08 27.278C178.15 26.0649 177.76 24.8706 176.989 23.9389C176.538 23.5138 176.004 23.1879 175.422 22.9816C174.84 22.7753 174.222 22.6932 173.607 22.7402C172.069 22.6617 170.561 23.193 169.404 24.2214Z" fill="#404546"/>
<path d="M187.594 20.4031L188 22.0127C189.691 20.7648 191.734 20.1013 193.827 20.1205C195.907 20.1205 197.624 20.5914 198.74 21.6959C199.237 22.2025 199.622 22.8102 199.87 23.4788C200.118 24.1474 200.223 24.8617 200.178 25.5744C200.182 26.2202 200.128 26.865 200.017 27.5009L198.681 36.1655H195.476L196.812 27.6036C196.908 27.1069 196.962 26.6027 196.973 26.0967C197.003 25.6505 196.944 25.2027 196.799 24.7803C196.653 24.3579 196.425 23.9698 196.127 23.6394C195.71 23.2894 195.228 23.0279 194.709 22.8705C194.191 22.7131 193.646 22.6631 193.108 22.7233C191.247 22.6794 189.425 23.2671 187.932 24.3929L186.097 36.1484H182.934L185.395 20.3859L187.594 20.4031Z" fill="#404546"/>
<path d="M217.92 21.8842C218.597 22.5323 219.127 23.3224 219.472 24.1994C219.817 25.0764 219.968 26.019 219.915 26.9613C219.95 28.3899 219.659 29.8074 219.065 31.1037C218.471 32.4 217.59 33.5402 216.49 34.4359C214.633 35.8129 212.373 36.5212 210.072 36.4479C209.085 36.4978 208.097 36.3478 207.168 36.0067C206.239 35.6657 205.386 35.1404 204.66 34.4616C204.028 33.8256 203.536 33.0627 203.214 32.2221C202.892 31.3815 202.748 30.4818 202.791 29.5813C202.76 28.2303 203.023 26.889 203.561 25.6522C204.099 24.4154 204.898 23.3132 205.903 22.4236C207.787 20.8427 210.181 20.0224 212.626 20.1204C214.544 20.0352 216.426 20.6624 217.92 21.8842ZM207.992 24.2216C207.319 24.8866 206.794 25.6883 206.45 26.5737C206.106 27.4591 205.951 28.4083 205.996 29.3587C205.947 30.5345 206.322 31.6882 207.053 32.6036C207.492 33.0648 208.027 33.4203 208.62 33.6441C209.213 33.8678 209.848 33.9541 210.478 33.8965C211.946 33.9635 213.388 33.4821 214.529 32.5437C215.255 31.8843 215.827 31.0699 216.204 30.1593C216.581 29.2487 216.754 28.2646 216.71 27.2781C216.78 26.065 216.39 24.8707 215.619 23.939C215.167 23.5156 214.633 23.1909 214.051 22.9847C213.469 22.7785 212.852 22.6953 212.237 22.7404C210.684 22.6505 209.16 23.1825 207.992 24.2216Z" fill="#404546"/>
<path d="M226.791 20.4028L225.455 28.9647C225.382 29.4438 225.339 29.9271 225.328 30.4117C225.295 30.8685 225.353 31.3275 225.498 31.7613C225.643 32.1952 225.873 32.5951 226.173 32.9374C226.58 33.2936 227.056 33.5611 227.569 33.7231C228.083 33.8852 228.624 33.9383 229.159 33.8792C231.033 33.9146 232.864 33.3116 234.359 32.1669L236.195 20.4371H239.374L236.913 36.1995H234.732L234.266 34.5642C232.589 35.8145 230.556 36.4786 228.474 36.4563C226.385 36.4563 224.677 36.0197 223.586 34.9752C223.071 34.4595 222.67 33.8382 222.412 33.1529C222.154 32.4677 222.044 31.7344 222.089 31.0024C222.1 30.3602 222.154 29.7195 222.25 29.0846L223.619 20.4114L226.791 20.4028Z" fill="#404546"/>
<path d="M253.844 29.2644H245.099L244.042 36.1652H240.803L243.264 20.4028H246.495L245.514 26.6444H254.258L255.256 20.4028H258.461L256.008 36.1652H252.795L253.844 29.2644Z" fill="#404546"/>
<path d="M264.558 20.403L264.964 22.0127C266.477 20.7533 268.384 20.0823 270.342 20.1205C271.51 20.0619 272.673 20.3004 273.725 20.814C274.481 21.183 275.117 21.7621 275.56 22.4836C277.357 20.9358 279.645 20.0966 282.004 20.1205C284.093 20.1205 285.649 20.6257 286.706 21.7301C287.164 22.2317 287.514 22.8239 287.733 23.4695C287.953 24.115 288.038 24.7997 287.983 25.4802C287.978 26.1976 287.915 26.9134 287.797 27.6207L286.461 36.1826H283.281L284.651 27.5179C284.749 26.966 284.811 26.4084 284.837 25.8484C284.903 25.0392 284.657 24.2356 284.152 23.6052C283.594 23.0059 282.664 22.749 281.319 22.749C279.491 22.7568 277.72 23.4006 276.304 24.5727C276.361 24.9379 276.383 25.3077 276.372 25.6771C276.377 26.3314 276.323 26.9848 276.211 27.6293L274.875 36.1911H271.729L273.074 27.5265C273.159 27.0144 273.201 26.4961 273.201 25.9768C273.263 25.1311 273.02 24.2911 272.516 23.6137C271.949 22.9802 271.053 22.7575 269.708 22.7575C267.97 22.7354 266.282 23.3427 264.947 24.4699L263.112 36.1997H259.89L262.351 20.4373L264.558 20.403Z" fill="#404546"/>
<path d="M99.0106 44.4019L98.3763 48.4773C98.366 48.6198 98.366 48.7629 98.3763 48.9054C98.3763 49.3506 98.6131 49.4705 99.0698 49.4705L99.1713 49.5732C99.1709 50.442 98.8719 51.2835 98.3256 51.9534L97.5222 51.688C97.784 51.2746 97.9489 50.806 98.0042 50.3181C97.8236 50.2878 97.6559 50.2042 97.522 50.0778C97.3881 49.9514 97.2941 49.7878 97.2516 49.6075C96.5945 50.1454 95.7793 50.4467 94.9345 50.4637C94.2756 50.5166 93.621 50.3181 93.0994 49.9072C92.9104 49.7077 92.7641 49.4709 92.6696 49.2117C92.575 48.9524 92.5342 48.6762 92.5497 48.4003C92.5501 48.1593 92.5699 47.9188 92.6089 47.6811L93.1163 44.4361H94.3171L93.8182 47.6468C93.779 47.8239 93.7591 48.0048 93.759 48.1862C93.7444 48.3572 93.7639 48.5294 93.8162 48.6926C93.8685 48.8558 93.9526 49.0068 94.0634 49.1366C94.2155 49.2703 94.393 49.3711 94.5849 49.4329C94.7769 49.4948 94.9793 49.5163 95.1797 49.4962C95.8827 49.4873 96.5655 49.2569 97.1332 48.8369L97.8266 44.4361L99.0106 44.4019Z" fill="#404546"/>
<path d="M109.167 50.027C108.399 50.3159 107.584 50.4525 106.765 50.4294C106.363 50.4553 105.96 50.3997 105.58 50.2659C105.199 50.1321 104.849 49.9228 104.55 49.6503C104.132 49.1619 103.912 48.5321 103.932 47.8866C103.924 47.357 104.033 46.8323 104.251 46.3508C104.469 45.8694 104.791 45.4434 105.192 45.1039C105.895 44.5655 106.756 44.282 107.636 44.2991C108.261 44.2589 108.883 44.4016 109.429 44.7101C109.664 44.8441 109.858 45.0414 109.99 45.2802C110.121 45.5189 110.185 45.7898 110.173 46.0629C110.175 46.3477 110.096 46.6271 109.946 46.8682C109.796 47.1093 109.582 47.3021 109.328 47.4242C108.306 47.8298 107.209 48.0023 106.114 47.9294C105.786 47.9369 105.458 47.9169 105.133 47.8694C105.118 48.0754 105.144 48.2823 105.209 48.4779C105.275 48.6735 105.378 48.8538 105.514 49.0082C105.927 49.3543 106.459 49.5205 106.994 49.4705C107.68 49.4638 108.363 49.363 109.023 49.1708L109.167 50.027ZM108.321 46.7821C108.905 46.6536 109.074 46.4396 109.074 46.0629C109.071 45.9426 109.037 45.8253 108.974 45.7229C108.912 45.6206 108.824 45.537 108.719 45.4807C108.37 45.2984 107.977 45.2211 107.586 45.2581C107.04 45.238 106.504 45.4038 106.063 45.729C105.665 46.0523 105.397 46.5122 105.311 47.0218C106.306 47.0687 107.304 46.9881 108.279 46.7821H108.321Z" fill="#404546"/>
<path d="M119.51 47.7325H116.228L115.831 50.301H114.613L115.535 44.3848H116.753L116.381 46.7307H119.662L120.034 44.3848H121.243L120.355 50.3181H119.146L119.51 47.7325Z" fill="#404546"/>
<path d="M127.408 44.4017L127.56 45.0096C128.129 44.5364 128.846 44.2843 129.581 44.299C130.022 44.276 130.46 44.3643 130.858 44.5559C131.141 44.6936 131.379 44.9105 131.543 45.1809C132.226 44.612 133.087 44.3084 133.97 44.3247C134.288 44.298 134.609 44.3374 134.911 44.4404C135.214 44.5435 135.492 44.7081 135.729 44.924C135.902 45.1126 136.035 45.3356 136.118 45.5788C136.201 45.8221 136.233 46.0802 136.211 46.3367C136.207 46.6062 136.185 46.8751 136.144 47.1415L135.636 50.3437H134.444L134.96 47.0902C134.996 46.8835 135.018 46.6747 135.028 46.4651C135.058 46.157 134.967 45.8493 134.774 45.6089C134.627 45.4849 134.457 45.3921 134.274 45.3362C134.091 45.2803 133.898 45.2624 133.708 45.2836C133.02 45.2883 132.354 45.5332 131.822 45.9771C131.835 46.1138 131.835 46.2514 131.822 46.3881C131.826 46.6349 131.806 46.8815 131.763 47.1244L131.264 50.3265H130.072L130.571 47.073C130.603 46.8807 130.62 46.686 130.622 46.4908C130.639 46.1827 130.546 45.8785 130.359 45.6346C130.218 45.5069 130.051 45.4117 129.87 45.3556C129.689 45.2994 129.498 45.2836 129.311 45.3093C128.659 45.3011 128.027 45.5288 127.526 45.9514L126.833 50.3522H125.641L126.562 44.436L127.408 44.4017Z" fill="#404546"/>
<path d="M142.748 44.4019L142.884 45.0098C143.543 44.5106 144.353 44.2593 145.175 44.2991C145.546 44.2739 145.917 44.3296 146.265 44.4626C146.612 44.5955 146.927 44.8026 147.188 45.0697C147.593 45.5431 147.802 46.1565 147.772 46.7821C147.791 47.7499 147.436 48.6872 146.782 49.3935C146.433 49.7416 146.018 50.0139 145.561 50.1935C145.105 50.3731 144.616 50.4563 144.127 50.438C143.45 50.4704 142.786 50.2511 142.258 49.8216L141.894 52.1076H140.702L141.903 44.4019H142.748ZM142.41 48.7684C142.649 48.993 142.93 49.1664 143.237 49.2783C143.543 49.3901 143.869 49.438 144.195 49.4192C144.795 49.4531 145.384 49.2471 145.835 48.8455C146.076 48.5875 146.263 48.2835 146.387 47.9513C146.51 47.619 146.567 47.2652 146.554 46.9105C146.572 46.6844 146.54 46.457 146.46 46.2449C146.381 46.0328 146.255 45.8415 146.093 45.6847C145.931 45.528 145.737 45.4099 145.524 45.3391C145.311 45.2682 145.085 45.2464 144.863 45.2752C144.142 45.2453 143.431 45.4493 142.833 45.8574L142.41 48.7684Z" fill="#404546"/>
<path d="M164.609 44.9585C164.862 45.2029 165.06 45.5003 165.189 45.83C165.317 46.1597 165.373 46.5139 165.353 46.8677C165.37 47.4037 165.263 47.9363 165.04 48.4226C164.816 48.9089 164.483 49.3353 164.068 49.6675C163.374 50.1875 162.528 50.4559 161.666 50.4295C160.916 50.4644 160.183 50.1965 159.628 49.6846C159.391 49.4438 159.207 49.1558 159.086 48.8389C158.965 48.522 158.91 48.1831 158.926 47.8438C158.913 47.3375 159.01 46.8346 159.212 46.3712C159.414 45.9078 159.715 45.4955 160.093 45.1639C160.806 44.5723 161.709 44.2674 162.63 44.3077C163.346 44.275 164.049 44.5062 164.609 44.9585ZM160.879 45.8146C160.631 46.0633 160.436 46.3612 160.306 46.6897C160.177 47.0183 160.116 47.3704 160.127 47.7239C160.108 48.1674 160.249 48.6027 160.524 48.9483C160.69 49.1207 160.891 49.2539 161.113 49.3383C161.335 49.4226 161.573 49.4561 161.81 49.4363C162.362 49.4595 162.904 49.2767 163.332 48.9226C163.61 48.678 163.831 48.3734 163.977 48.0311C164.123 47.6888 164.192 47.3175 164.178 46.9448C164.203 46.4912 164.058 46.0445 163.772 45.6948C163.601 45.5342 163.4 45.411 163.18 45.3329C162.96 45.2548 162.727 45.2235 162.495 45.241C162.2 45.2263 161.904 45.2718 161.627 45.3748C161.35 45.4777 161.095 45.636 160.879 45.8403V45.8146Z" fill="#404546"/>
<path d="M175.425 45.5405C174.864 45.3613 174.28 45.2689 173.691 45.2665C173.059 45.2338 172.438 45.4415 171.949 45.8487C171.685 46.0788 171.476 46.366 171.337 46.6892C171.198 47.0123 171.133 47.363 171.146 47.7152C171.135 47.9341 171.167 48.153 171.241 48.3589C171.315 48.5648 171.43 48.7536 171.577 48.9139C171.775 49.0964 172.007 49.2355 172.261 49.3224C172.514 49.4094 172.782 49.4423 173.049 49.4191C173.674 49.4168 174.295 49.3216 174.892 49.1365L175.087 49.9927C174.362 50.2765 173.589 50.416 172.812 50.4037C172.029 50.4518 171.257 50.1944 170.655 49.6845C170.415 49.4437 170.226 49.1551 170.101 48.8368C169.976 48.5185 169.917 48.1775 169.928 47.8351C169.918 47.3127 170.027 46.795 170.245 46.3216C170.464 45.8482 170.786 45.4316 171.188 45.1039C171.927 44.5248 172.842 44.2223 173.776 44.2477C174.49 44.2295 175.199 44.3668 175.856 44.6501L175.425 45.5405Z" fill="#404546"/>
<path d="M181.767 44.4019L181.92 45.0098C182.488 44.5366 183.205 44.2845 183.941 44.2992C184.381 44.2755 184.82 44.3638 185.218 44.5561C185.502 44.6948 185.742 44.9113 185.911 45.1811C186.591 44.6141 187.449 44.3106 188.33 44.3249C188.649 44.2975 188.971 44.3366 189.275 44.4396C189.579 44.5427 189.859 44.7076 190.097 44.9242C190.267 45.1146 190.397 45.3381 190.478 45.5811C190.56 45.824 190.591 46.0812 190.571 46.3369C190.571 46.6066 190.548 46.8759 190.503 47.1417L190.004 50.3439H188.854L189.362 47.0904C189.404 46.8845 189.429 46.6754 189.438 46.4653C189.466 46.1561 189.371 45.8482 189.175 45.6092C189.029 45.4851 188.859 45.3924 188.675 45.3364C188.492 45.2805 188.3 45.2626 188.11 45.2838C187.424 45.2904 186.761 45.5352 186.233 45.9773C186.245 46.114 186.245 46.2516 186.233 46.3883C186.232 46.6349 186.212 46.8811 186.173 47.1246L185.666 50.3268H184.457L184.964 47.0732C184.994 46.8807 185.008 46.6859 185.006 46.491C185.027 46.184 184.936 45.8799 184.753 45.6348C184.61 45.5074 184.441 45.4125 184.259 45.3564C184.077 45.3002 183.884 45.2843 183.696 45.3095C183.044 45.3013 182.411 45.529 181.911 45.9516L181.243 50.3182H180.051L180.981 44.4019H181.767Z" fill="#404546"/>
<path d="M200.693 50.0269C199.923 50.3156 199.105 50.4522 198.283 50.4293C197.883 50.455 197.481 50.3993 197.102 50.2655C196.723 50.1317 196.374 49.9225 196.076 49.6502C195.656 49.1631 195.432 48.5332 195.45 47.8864C195.441 47.3559 195.551 46.8302 195.771 46.3484C195.99 45.8666 196.314 45.4412 196.719 45.1038C197.42 44.5624 198.282 44.2785 199.163 44.299C199.784 44.2575 200.404 44.4004 200.947 44.71C201.183 44.8506 201.378 45.0528 201.511 45.2955C201.643 45.5382 201.709 45.8126 201.701 46.0898C201.694 46.3671 201.612 46.6372 201.466 46.8719C201.32 47.1066 201.115 47.2973 200.871 47.4241C199.846 47.8291 198.747 48.0015 197.649 47.9292C197.321 47.9365 196.993 47.9165 196.668 47.8693C196.652 48.076 196.678 48.2838 196.745 48.4798C196.812 48.6757 196.918 48.8555 197.057 49.0081C197.468 49.3528 197.997 49.519 198.529 49.4704C199.218 49.4626 199.903 49.3618 200.567 49.1707L200.693 50.0269ZM199.806 46.782C200.389 46.6535 200.55 46.4395 200.55 46.0628C200.549 45.9432 200.516 45.8261 200.455 45.7237C200.394 45.6213 200.307 45.5373 200.203 45.4806C199.854 45.2996 199.461 45.2224 199.07 45.2579C198.525 45.2379 197.989 45.4037 197.548 45.7289C197.146 46.0513 196.876 46.5111 196.787 47.0217C197.793 47.0702 198.802 46.9896 199.789 46.782H199.806Z" fill="#404546"/>
<path d="M211.797 44.9584C212.051 45.2028 212.249 45.5002 212.377 45.83C212.506 46.1597 212.562 46.5138 212.541 46.8677C212.554 47.4031 212.445 47.9343 212.222 48.42C211.999 48.9056 211.669 49.3326 211.256 49.6675C210.559 50.1875 209.711 50.4558 208.846 50.4294C208.476 50.4475 208.105 50.3909 207.757 50.2631C207.409 50.1352 207.089 49.9386 206.816 49.6846C206.578 49.4448 206.393 49.1569 206.272 48.8398C206.151 48.5226 206.097 48.1833 206.114 47.8438C206.101 47.3375 206.199 46.8346 206.4 46.3712C206.602 45.9078 206.903 45.4954 207.281 45.1639C207.992 44.5686 208.897 44.2633 209.818 44.3077C210.534 44.2773 211.236 44.5083 211.797 44.9584ZM208.068 45.8146C207.819 46.0632 207.624 46.3611 207.494 46.6897C207.365 47.0182 207.304 47.3703 207.315 47.7239C207.296 48.1674 207.437 48.6027 207.712 48.9482C207.878 49.1207 208.079 49.2538 208.301 49.3382C208.523 49.4226 208.761 49.4561 208.998 49.4363C209.55 49.4595 210.092 49.2767 210.52 48.9225C210.798 48.678 211.019 48.3733 211.165 48.031C211.311 47.6887 211.38 47.3175 211.366 46.9448C211.393 46.4894 211.245 46.0411 210.951 45.6947C210.782 45.5353 210.582 45.4127 210.364 45.3347C210.145 45.2566 209.914 45.2247 209.683 45.241C209.388 45.2253 209.092 45.2703 208.815 45.3733C208.537 45.4764 208.283 45.6352 208.068 45.8403V45.8146Z" fill="#404546"/>
<path d="M218.748 44.402L218.901 45.0099C219.534 44.5422 220.299 44.2931 221.082 44.2993C221.752 44.2472 222.415 44.4588 222.934 44.89C223.121 45.08 223.266 45.308 223.36 45.5589C223.453 45.8098 223.493 46.078 223.476 46.3456C223.475 46.5865 223.456 46.8271 223.417 47.0648L222.909 50.3183H221.708L222.207 47.1161C222.242 46.9269 222.262 46.735 222.266 46.5425C222.281 46.3768 222.261 46.2099 222.209 46.0522C222.156 45.8946 222.072 45.7496 221.962 45.6264C221.806 45.4941 221.625 45.3949 221.431 45.3346C221.236 45.2743 221.031 45.2542 220.829 45.2753C220.131 45.2602 219.449 45.4833 218.892 45.9089L218.199 50.3183H217.006L217.928 44.402H218.748Z" fill="#404546"/>
<path d="M234.427 48.6399C234.381 48.8855 234.359 49.1349 234.359 49.3848C234.361 49.6478 234.395 49.9096 234.461 50.164L233.7 50.378C233.483 50.1999 233.338 49.9468 233.294 49.6674C232.633 50.1817 231.818 50.4507 230.985 50.4294C230.289 50.4744 229.602 50.2407 229.074 49.7787C228.822 49.5462 228.626 49.2591 228.5 48.9387C228.374 48.6183 228.322 48.2732 228.347 47.9293C228.332 47.4048 228.43 46.8834 228.634 46.4013C228.839 45.9192 229.145 45.4881 229.531 45.1381C230.185 44.567 231.026 44.262 231.89 44.2819C232.624 44.2314 233.349 44.4639 233.92 44.9326L234.224 44.3847H235.07L234.427 48.6399ZM233.674 45.8145C233.138 45.422 232.484 45.2285 231.822 45.2666C231.543 45.2581 231.264 45.306 231.003 45.4074C230.742 45.5088 230.503 45.6618 230.3 45.8573C230.046 46.1037 229.848 46.4024 229.718 46.7333C229.588 47.0643 229.53 47.4196 229.548 47.7752C229.534 48.009 229.569 48.2432 229.653 48.4618C229.736 48.6804 229.864 48.8784 230.03 49.0423C230.388 49.3189 230.831 49.4584 231.281 49.4362C231.97 49.443 232.642 49.2271 233.201 48.8197L233.674 45.8145Z" fill="#404546"/>
<path d="M241.192 44.4019L241.345 45.0098C241.913 44.5366 242.63 44.2845 243.366 44.2992C243.806 44.2755 244.245 44.3638 244.643 44.5561C244.927 44.6948 245.167 44.9113 245.336 45.1811C246.016 44.6141 246.874 44.3106 247.755 44.3249C248.074 44.2985 248.395 44.338 248.699 44.4411C249.003 44.5441 249.283 44.7084 249.522 44.9242C249.692 45.1146 249.822 45.3381 249.903 45.5811C249.984 45.824 250.016 46.0812 249.996 46.3369C249.991 46.6064 249.969 46.8753 249.928 47.1417L249.429 50.3439H248.237L248.744 47.0904C248.782 46.8838 248.808 46.6751 248.82 46.4653C248.848 46.1561 248.754 45.8482 248.558 45.6092C248.411 45.4851 248.241 45.3924 248.058 45.3364C247.875 45.2805 247.683 45.2626 247.493 45.2838C246.807 45.2904 246.144 45.5352 245.615 45.9773C245.628 46.114 245.628 46.2516 245.615 46.3883C245.615 46.6349 245.595 46.8811 245.556 47.1246L245.049 50.3268H243.856L244.364 47.0732C244.394 46.8807 244.408 46.6859 244.406 46.491C244.426 46.184 244.336 45.8799 244.152 45.6348C244.009 45.5074 243.841 45.4125 243.658 45.3564C243.476 45.3002 243.284 45.2843 243.095 45.3095C242.444 45.3013 241.811 45.529 241.311 45.9516L240.617 50.3524H239.425L240.355 44.4362L241.192 44.4019Z" fill="#404546"/>
<path d="M256.6 44.4019L256.101 47.6126C256.073 47.7911 256.056 47.9713 256.051 48.152C256.025 48.4969 256.134 48.8383 256.355 49.1023C256.509 49.2367 256.687 49.3379 256.881 49.3997C257.074 49.4616 257.278 49.4827 257.48 49.4619C258.186 49.4723 258.875 49.2399 259.433 48.8027L260.127 44.4019H261.319L260.389 50.3181H259.543L259.374 49.7188C258.746 50.1892 257.982 50.4387 257.201 50.4294C256.542 50.4849 255.886 50.2862 255.366 49.8729C255.174 49.6789 255.024 49.4458 254.928 49.1889C254.832 48.932 254.791 48.6574 254.808 48.3832C254.808 48.1393 254.827 47.8959 254.867 47.6554L255.374 44.4019H256.6Z" fill="#404546"/>
<path d="M267.814 44.4019L267.315 47.6126C267.287 47.7911 267.27 47.9712 267.264 48.152C267.239 48.4969 267.348 48.8382 267.569 49.1023C267.722 49.2367 267.901 49.3379 268.094 49.3997C268.288 49.4616 268.492 49.4827 268.693 49.4619C269.399 49.4696 270.087 49.2375 270.647 48.8027L271.332 44.4019H272.524L271.603 50.3181H270.757L270.596 49.7188C269.968 50.1892 269.204 50.4387 268.423 50.4294C267.764 50.4867 267.107 50.2877 266.588 49.8729C266.393 49.6807 266.241 49.448 266.143 49.1908C266.045 48.9337 266.004 48.6582 266.021 48.3831C266.025 48.1395 266.045 47.8964 266.08 47.6554L266.596 44.4019H267.814Z" fill="#404546"/>
<path d="M42.4273 3.23639C36.8311 0.879989 30.6704 0.256476 24.7242 1.44471C18.778 2.63295 13.3133 5.57955 9.02102 9.91197C4.72878 14.2444 1.80172 19.7681 0.609964 25.7846C-0.581791 31.8012 0.0152623 38.0404 2.32563 43.7134C4.636 49.3864 8.55593 54.2384 13.5898 57.656C18.6237 61.0737 24.5454 62.9034 30.6064 62.9139C36.6673 62.9243 42.5951 61.1151 47.6405 57.7148C52.6859 54.3146 56.6221 49.4761 58.9516 43.8111C60.4999 40.0486 61.3007 36.0142 61.3081 31.9382C61.3155 27.8623 60.5294 23.8248 58.9948 20.0566C57.4602 16.2884 55.2071 12.8634 52.3643 9.97727C49.5216 7.09115 46.1449 4.80054 42.4273 3.23639Z" fill="url(#paint0_radial_236_77)"/>
<path d="M29.4545 64.0085C29.0658 64.0057 28.6815 63.9254 28.3234 63.7722C27.9654 63.619 27.6407 63.3959 27.3678 63.1157C26.8167 62.5497 26.5102 61.7852 26.5158 60.9904C26.5214 60.1957 26.8386 59.4357 27.3977 58.8778C27.9567 58.3198 28.7118 58.0095 29.4968 58.0152C30.2614 58.0371 30.9883 58.3561 31.5268 58.906C32.0653 59.456 32.3741 60.1948 32.389 60.969C32.3957 61.3643 32.3249 61.757 32.1806 62.1244C32.0364 62.4917 31.8215 62.8264 31.5486 63.1091C31.2757 63.3918 30.95 63.6169 30.5906 63.7713C30.2311 63.9257 29.845 64.0063 29.4545 64.0085Z" fill="white"/>
<path d="M31.8139 2.58567C31.4707 2.57894 31.1438 2.43617 30.9034 2.18801C30.6631 1.93986 30.5284 1.60615 30.5285 1.25859C30.5548 0.930556 30.702 0.62455 30.941 0.401433C31.1799 0.178317 31.4931 0.0544434 31.8181 0.0544434C32.1432 0.0544434 32.4564 0.178317 32.6953 0.401433C32.9343 0.62455 33.0815 0.930556 33.1078 1.25859C33.1078 1.60761 32.972 1.94257 32.7299 2.19097C32.4877 2.43936 32.1586 2.58116 31.8139 2.58567Z" fill="white"/>
<path d="M35.1036 51.2084C34.7349 51.2248 34.3669 51.1649 34.0219 51.0324C33.6769 50.8999 33.3622 50.6976 33.097 50.4378C32.8318 50.178 32.6217 49.8662 32.4796 49.5215C32.3374 49.1767 32.2662 48.8063 32.2702 48.4327C32.2743 48.0591 32.3535 47.6903 32.503 47.3488C32.6526 47.0073 32.8693 46.7002 33.14 46.4464C33.4108 46.1925 33.7297 45.9972 34.0775 45.8723C34.4253 45.7475 34.7946 45.6958 35.1628 45.7203C35.8555 45.7664 36.5045 46.0795 36.9762 46.5951C37.448 47.1108 37.7067 47.7899 37.6991 48.4927C37.6915 49.1956 37.4182 49.8687 36.9355 50.3739C36.4527 50.879 35.7972 51.1776 35.1036 51.2084Z" fill="white"/>
<path d="M37.742 41.4138C37.742 42.095 37.4747 42.7483 36.999 43.23C36.5232 43.7117 35.8779 43.9823 35.205 43.9823C34.5322 43.9823 33.8869 43.7117 33.4111 43.23C32.9353 42.7483 32.668 42.095 32.668 41.4138C32.668 40.7326 32.9353 40.0792 33.4111 39.5975C33.8869 39.1158 34.5322 38.8452 35.205 38.8452C35.8779 38.8452 36.5232 39.1158 36.999 39.5975C37.4747 40.0792 37.742 40.7326 37.742 41.4138Z" fill="white"/>
<path d="M32.9048 32.4836C33.3805 32.4769 33.8475 32.6133 34.2465 32.8755C34.6455 33.1378 34.9585 33.5141 35.146 33.9568C35.3334 34.3995 35.3868 34.8885 35.2994 35.362C35.2119 35.8354 34.9876 36.2719 34.6548 36.616C34.322 36.9602 33.8957 37.1965 33.4301 37.2951C32.9644 37.3937 32.4804 37.35 32.0393 37.1696C31.5982 36.9892 31.2199 36.6803 30.9524 36.282C30.685 35.8837 30.5404 35.4139 30.537 34.9323C30.5325 34.2904 30.7788 33.6726 31.2224 33.2139C31.666 32.7552 32.2708 32.4927 32.9048 32.4836Z" fill="white"/>
<path d="M29.4207 31.1395C28.8217 31.1129 28.2565 30.8514 27.8446 30.4104C27.4327 29.9693 27.2063 29.3834 27.2135 28.7764C27.2275 28.4708 27.3015 28.1711 27.4311 27.8947C27.5608 27.6184 27.7435 27.371 27.9687 27.1669C28.1939 26.9628 28.4569 26.8063 28.7425 26.7063C29.0281 26.6063 29.3305 26.5649 29.6321 26.5846C29.9532 26.6143 30.2651 26.709 30.5494 26.8629C30.8337 27.0168 31.0846 27.2269 31.2872 27.4808C31.4899 27.7347 31.6402 28.0271 31.7292 28.3409C31.8182 28.6546 31.8441 28.9832 31.8055 29.3073C31.6513 29.8293 31.3371 30.2881 30.9084 30.6175C30.4798 30.9469 29.9587 31.1297 29.4207 31.1395Z" fill="white"/>
<path d="M27.2304 25.1889C26.8433 25.1872 26.4655 25.0691 26.1448 24.8496C25.8242 24.6301 25.5751 24.3191 25.4294 23.9561C25.2836 23.593 25.2476 23.1943 25.326 22.8106C25.4044 22.4268 25.5937 22.0753 25.8698 21.8006C26.1458 21.5259 26.4963 21.3404 26.8766 21.2677C27.257 21.195 27.6501 21.2384 28.0061 21.3923C28.3621 21.5461 28.6649 21.8036 28.8761 22.132C29.0873 22.4605 29.1974 22.845 29.1923 23.2368C29.1857 23.7584 28.9757 24.2562 28.6083 24.6218C28.2408 24.9874 27.7456 25.1912 27.2304 25.1889Z" fill="white"/>
<path d="M24.6257 17.0468C24.6245 16.8056 24.6713 16.5666 24.7631 16.344C24.855 16.1215 24.9902 15.9199 25.1607 15.7513C25.3311 15.5828 25.5333 15.4507 25.7552 15.3629C25.9771 15.2751 26.2142 15.2333 26.4524 15.2402C26.8082 15.2453 27.1546 15.357 27.4478 15.5613C27.7411 15.7655 27.9679 16.053 28.0999 16.3877C28.2318 16.7223 28.2629 17.089 28.1891 17.4415C28.1154 17.794 27.9402 18.1165 27.6856 18.3683C27.4311 18.6201 27.1085 18.7899 26.7587 18.8562C26.4089 18.9226 26.0476 18.8826 25.7202 18.7412C25.3929 18.5998 25.1142 18.3634 24.9194 18.0619C24.7246 17.7603 24.6224 17.4071 24.6257 17.0468Z" fill="white"/>
<path d="M25.3446 10.9849C25.3432 10.7624 25.3865 10.542 25.4718 10.337C25.5571 10.1319 25.6826 9.94651 25.8408 9.79201C25.9989 9.63751 26.1863 9.51714 26.3918 9.43815C26.5972 9.35916 26.8163 9.32321 27.0359 9.33248C27.4771 9.34365 27.8965 9.52899 28.2046 9.84892C28.5127 10.1688 28.6851 10.598 28.685 11.0449C28.6739 11.4915 28.4909 11.9162 28.1749 12.2281C27.8589 12.54 27.435 12.7146 26.9936 12.7144C26.5495 12.7032 26.1275 12.5155 25.819 12.1919C25.5104 11.8683 25.34 11.4347 25.3446 10.9849Z" fill="white"/>
<path d="M28.964 6.66962C29.7627 6.66962 30.4101 6.01412 30.4101 5.20554C30.4101 4.39695 29.7627 3.74146 28.964 3.74146C28.1654 3.74146 27.5179 4.39695 27.5179 5.20554C27.5179 6.01412 28.1654 6.66962 28.964 6.66962Z" fill="white"/>
<path d="M35.7378 55.1128C35.7378 55.6733 35.5737 56.2212 35.2661 56.6873C34.9585 57.1533 34.5213 57.5166 34.0099 57.7311C33.4984 57.9455 32.9356 58.0017 32.3926 57.8923C31.8496 57.783 31.3509 57.5131 30.9594 57.1167C30.5679 56.7204 30.3013 56.2154 30.1933 55.6657C30.0853 55.1159 30.1407 54.5461 30.3526 54.0283C30.5645 53.5104 30.9232 53.0678 31.3836 52.7564C31.8439 52.445 32.3851 52.2788 32.9387 52.2788C33.6811 52.2788 34.393 52.5774 34.918 53.1089C35.4429 53.6403 35.7378 54.3612 35.7378 55.1128Z" fill="white"/>
</g>
<defs>
<radialGradient id="paint0_radial_236_77" cx="0" cy="0" r="1" gradientUnits="userSpaceOnUse" gradientTransform="translate(47.1458 16.6295) rotate(22.6938) scale(60.3888 60.9178)">
<stop stop-color="#04A6D1"/>
<stop offset="0.49" stop-color="#075877"/>
<stop offset="1" stop-color="#163141"/>
</radialGradient>
<clipPath id="clip0_236_77">
<rect width="288" height="64" fill="white"/>
</clipPath>
</defs>
</svg>
