<svg width="30" height="36" viewBox="0 0 30 36" fill="none" xmlns="http://www.w3.org/2000/svg">
<path fill-rule="evenodd" clip-rule="evenodd" d="M14.9091 35C14.9091 35 28.8182 25.7273 28.8182 14.9091C28.8182 11.2202 27.3528 7.68234 24.7443 5.07388C22.1358 2.46542 18.598 1 14.9091 1C11.2202 1 7.68234 2.46542 5.07388 5.07388C2.46542 7.68234 1 11.2202 1 14.9091C1 25.7273 14.9091 35 14.9091 35ZM19.5455 14.9088C19.5455 17.4694 17.4697 19.5452 14.9091 19.5452C12.3485 19.5452 10.2728 17.4694 10.2728 14.9088C10.2728 12.3482 12.3485 10.2725 14.9091 10.2725C17.4697 10.2725 19.5455 12.3482 19.5455 14.9088Z" fill="#F3F5F7"/>
<path d="M14.9091 35L14.3544 35.8321C14.6903 36.056 15.1279 36.056 15.4638 35.8321L14.9091 35ZM24.7443 5.07388L24.0372 5.78098V5.78098L24.7443 5.07388ZM5.07388 5.07388L4.36677 4.36677L5.07388 5.07388ZM27.8182 14.9091C27.8182 19.9162 24.5752 24.6952 21.1377 28.3236C19.4394 30.1163 17.7377 31.582 16.4595 32.5998C15.8211 33.1081 15.2904 33.5031 14.9213 33.7698C14.7367 33.903 14.5927 34.0041 14.4959 34.0711C14.4475 34.1046 14.411 34.1296 14.3871 34.1458C14.3752 34.1539 14.3664 34.1599 14.3609 34.1636C14.3582 34.1654 14.3563 34.1667 14.3552 34.1674C14.3546 34.1678 14.3543 34.168 14.3541 34.1681C14.3541 34.1682 14.3541 34.1681 14.3541 34.1681C14.3542 34.1681 14.3544 34.1679 14.9091 35C15.4638 35.8321 15.4641 35.8319 15.4644 35.8317C15.4646 35.8315 15.4649 35.8313 15.4653 35.831C15.466 35.8306 15.4669 35.8299 15.4681 35.8292C15.4704 35.8277 15.4735 35.8256 15.4774 35.8229C15.4853 35.8176 15.4965 35.8101 15.5109 35.8003C15.5396 35.7808 15.5812 35.7524 15.6347 35.7153C15.7416 35.6412 15.8964 35.5325 16.0922 35.3911C16.4837 35.1084 17.0397 34.6944 17.7053 34.1644C19.035 33.1055 20.8106 31.5769 22.5896 29.6991C26.1066 25.9867 29.8182 20.7201 29.8182 14.9091H27.8182ZM24.0372 5.78098C26.4581 8.20191 27.8182 11.4854 27.8182 14.9091H29.8182C29.8182 10.955 28.2474 7.16277 25.4514 4.36677L24.0372 5.78098ZM14.9091 2C18.3328 2 21.6163 3.36006 24.0372 5.78098L25.4514 4.36677C22.6554 1.57077 18.8632 0 14.9091 0V2ZM5.78098 5.78098C8.20191 3.36006 11.4854 2 14.9091 2V0C10.955 0 7.16277 1.57077 4.36677 4.36677L5.78098 5.78098ZM2 14.9091C2 11.4854 3.36006 8.20191 5.78098 5.78098L4.36677 4.36677C1.57077 7.16277 0 10.955 0 14.9091H2ZM14.9091 35C15.4638 34.1679 15.464 34.1681 15.4641 34.1681C15.464 34.1681 15.4641 34.1682 15.464 34.1681C15.4639 34.168 15.4636 34.1678 15.463 34.1674C15.4619 34.1667 15.46 34.1654 15.4572 34.1636C15.4518 34.1599 15.443 34.1539 15.4311 34.1458C15.4072 34.1296 15.3706 34.1046 15.3223 34.0711C15.2255 34.0041 15.0815 33.903 14.8969 33.7698C14.5277 33.5031 13.997 33.1081 13.3587 32.5998C12.0805 31.582 10.3788 30.1163 8.6805 28.3236C5.24301 24.6952 2 19.9162 2 14.9091H0C0 20.7201 3.71154 25.9867 7.22859 29.6991C9.00757 31.5769 10.7831 33.1055 12.1129 34.1644C12.7785 34.6944 13.3345 35.1084 13.7259 35.3911C13.9217 35.5325 14.0765 35.6412 14.1835 35.7153C14.237 35.7524 14.2786 35.7808 14.3073 35.8003C14.3217 35.8101 14.3329 35.8176 14.3408 35.8229C14.3447 35.8256 14.3478 35.8277 14.3501 35.8292C14.3512 35.8299 14.3522 35.8306 14.3529 35.831C14.3532 35.8313 14.3536 35.8315 14.3538 35.8317C14.3541 35.8319 14.3544 35.8321 14.9091 35ZM14.9091 20.5452C18.022 20.5452 20.5455 18.0217 20.5455 14.9088H18.5455C18.5455 16.9171 16.9174 18.5452 14.9091 18.5452V20.5452ZM9.27277 14.9088C9.27277 18.0217 11.7963 20.5452 14.9091 20.5452V18.5452C12.9008 18.5452 11.2728 16.9171 11.2728 14.9088H9.27277ZM14.9091 9.27246C11.7963 9.27246 9.27277 11.7959 9.27277 14.9088H11.2728C11.2728 12.9005 12.9008 11.2725 14.9091 11.2725V9.27246ZM20.5455 14.9088C20.5455 11.7959 18.022 9.27246 14.9091 9.27246V11.2725C16.9174 11.2725 18.5455 12.9005 18.5455 14.9088H20.5455Z" fill="#404546"/>
<path d="M14.9088 19.5452C17.4694 19.5452 19.5452 17.4694 19.5452 14.9088C19.5452 12.3482 17.4694 10.2725 14.9088 10.2725C12.3482 10.2725 10.2725 12.3482 10.2725 14.9088C10.2725 17.4694 12.3482 19.5452 14.9088 19.5452Z" stroke="#404546" stroke-width="2" stroke-linecap="round" stroke-linejoin="round"/>
</svg>
