<svg width="21" height="14" viewBox="0 0 21 14" fill="none" xmlns="http://www.w3.org/2000/svg">
<path d="M10.0709 13.2828C10.265 13.6072 10.735 13.6072 10.9291 13.2828L13.9125 8.2963L15.225 12.1852H14.675C14.3989 12.1852 14.175 12.409 14.175 12.6852V13.2407C14.175 13.5169 14.3989 13.7407 14.675 13.7407H20.5C20.7761 13.7407 21 13.5169 21 13.2407V12.6852C21 12.409 20.7761 12.1852 20.5 12.1852H19.6875L15.0931 0.960462C14.9345 0.57286 14.3981 0.540389 14.1939 0.906021L10.5 7.51852L6.80612 0.906022C6.60187 0.540389 6.06552 0.572859 5.90687 0.960462L1.3125 12.1852H0.5C0.223858 12.1852 0 12.409 0 12.6852V13.2407C0 13.5169 0.223858 13.7407 0.5 13.7407H6.325C6.60114 13.7407 6.825 13.5169 6.825 13.2407V12.6852C6.825 12.409 6.60114 12.1852 6.325 12.1852H5.775L7.0875 8.2963L10.0709 13.2828Z" fill="#404546"/>
</svg>
