<svg width="56" height="63" viewBox="0 0 56 63" fill="none" xmlns="http://www.w3.org/2000/svg">
<path d="M4 38.7226C4 41.644 5.81427 44.2582 8.55105 45.2802L56 63V41.7742L13.4489 25.8835C8.87414 24.1751 4 27.5578 4 32.4412V38.7226Z" fill="white"/>
<path opacity="0.42" d="M4 38.7226C4 41.644 5.81427 44.2582 8.55105 45.2802L56 63V41.7742L18.8483 27.8999C11.6594 25.2152 4 30.5309 4 38.2048V38.7226Z" fill="url(#paint0_linear_67_276)"/>
<path d="M3.73333 27.0671C3.73333 22.4696 6.59259 18.357 10.9022 16.7558L56 0V21.3387L7.65245 38.0069C4.65493 39.0403 4.25805 43.1176 7 44.7097L6.43619 44.2712C4.73082 42.9451 3.73333 40.9058 3.73333 38.7454V27.0671Z" fill="white"/>
<path d="M19.294 19.1228C20.303 18.7769 21.2161 18.8021 22.0333 19.1984C22.8605 19.5913 23.4725 20.385 23.8692 21.5795L25.4223 26.2564L23.0612 27.066L21.6291 22.7535C21.414 22.1056 21.1131 21.6732 20.7263 21.4563C20.3362 21.2292 19.8738 21.2073 19.339 21.3907C18.7437 21.5948 18.3317 21.9447 18.1029 22.4403C17.8708 22.9259 17.8757 23.5331 18.1178 24.2619L19.4591 28.301L17.098 29.1106L14.3852 20.9412L16.6403 20.168L16.9579 21.1246C17.1564 20.6732 17.4575 20.2768 17.8611 19.9355C18.2614 19.584 18.739 19.3131 19.294 19.1228ZM34.5837 18.5993C34.5938 18.6297 34.6492 18.8474 34.7501 19.2526L28.5901 21.3647C28.8692 21.8328 29.2643 22.1427 29.7755 22.2944C30.2866 22.4462 30.85 22.4165 31.4655 22.2055C31.8893 22.0602 32.2424 21.8714 32.525 21.6392C32.8142 21.3935 33.0547 21.0855 33.2465 20.7153L34.9565 21.6512C34.4822 22.7948 33.5084 23.6192 32.0352 24.1243C31.117 24.4391 30.246 24.5405 29.422 24.4283C28.5947 24.3061 27.8834 23.9918 27.2882 23.4855C26.693 22.9792 26.261 22.3212 25.992 21.5113C25.7265 20.7116 25.6744 19.9288 25.836 19.1631C26.0043 18.3837 26.3575 17.7045 26.8957 17.1253C27.4406 16.5325 28.1217 16.096 28.939 15.8158C29.7361 15.5425 30.5147 15.4672 31.2748 15.59C32.0348 15.7128 32.7041 16.0358 33.2825 16.5591C33.8676 17.0689 34.3013 17.7489 34.5837 18.5993ZM29.5492 17.6024C29.0144 17.7858 28.6158 18.0916 28.3534 18.5198C28.091 18.948 28.0069 19.4392 28.101 19.9933L32.1118 18.6181C31.8596 18.1295 31.5015 17.7956 31.0374 17.6165C30.5699 17.4272 30.0739 17.4225 29.5492 17.6024ZM48.0207 9.40852L47.7822 18.5898L45.5119 19.3682L41.9964 14.9244L41.7887 20.6448L39.5184 21.4232L33.8694 14.2606L36.0943 13.4978L39.8519 18.3659L40.0142 12.1537L42.0121 11.4687L45.7848 16.3317L45.9321 10.1247L48.0207 9.40852Z" fill="#404546"/>
<defs>
<linearGradient id="paint0_linear_67_276" x1="4" y1="30.9919" x2="41.7854" y2="37.7758" gradientUnits="userSpaceOnUse">
<stop stop-opacity="0.73"/>
<stop offset="1" stop-opacity="0"/>
</linearGradient>
</defs>
</svg>
