<svg width="36" height="36" viewBox="0 0 36 36" fill="none" xmlns="http://www.w3.org/2000/svg">
<rect x="0.75" y="0.75" width="34.5" height="34.5" rx="4.25" fill="#00A9D0" stroke="#00A9D0" stroke-width="1.5"/>
<path d="M11.7992 8.64307L11.7992 8.64307C11.547 8.90692 11.447 9.32742 11.447 9.84599L11.447 28.1092C11.447 28.6097 11.5121 29.0112 11.6735 29.2772C11.9023 29.6597 12.2686 29.8472 12.7351 29.8472C13.2017 29.8472 13.5679 29.6598 13.7967 29.2772C13.9582 29.0113 14.0233 28.6097 14.0233 28.1092L14.0233 21.0631H19.1653C21.0563 21.0631 22.6118 20.4809 23.8133 19.3054L23.8139 19.3048C25.0164 18.1181 25.6117 16.5605 25.6117 14.6521C25.6117 12.744 25.0165 11.1955 23.813 10.0281C22.6115 8.85279 21.0561 8.2707 19.1653 8.2707L12.9613 8.2707C12.4613 8.2707 12.0536 8.37684 11.7992 8.64307ZM21.9384 11.7061L21.9384 11.7061L21.9403 11.7078C22.6516 12.3694 23.0212 13.3397 23.0212 14.6521C23.0212 15.9747 22.6513 16.9554 21.9393 17.6269C21.2214 18.3039 20.2478 18.6519 18.9957 18.6519H14.0233L14.0233 10.6819L18.9957 10.6819C20.2578 10.6819 21.2305 11.0302 21.9384 11.7061Z" fill="white" stroke="white" stroke-width="0.4"/>
</svg>
