<svg width="154" height="161" viewBox="0 0 154 161" fill="none" xmlns="http://www.w3.org/2000/svg">
<g opacity="0.06">
<path fill-rule="evenodd" clip-rule="evenodd" d="M104 189.647C151.302 189.647 189.647 151.302 189.647 104C189.647 56.6984 151.302 18.3529 104 18.3529C56.6984 18.3529 18.3529 56.6984 18.3529 104C18.3529 151.302 56.6984 189.647 104 189.647ZM104 208C161.438 208 208 161.438 208 104C208 46.5624 161.438 0 104 0C46.5624 0 0 46.5624 0 104C0 161.438 46.5624 208 104 208Z" fill="#FF3A44"/>
<path d="M72.4088 106.378C65.5805 106.378 59.9938 104.059 55.6485 99.4207C51.392 94.6937 49.2637 88.4058 49.2637 80.5572C49.2637 72.7085 51.392 66.4652 55.6485 61.8274C59.9938 57.1003 65.5805 54.7368 72.4088 54.7368C79.237 54.7368 84.7794 57.1003 89.036 61.8274C93.2926 66.4652 95.4209 72.7085 95.4209 80.5572C95.4209 88.4058 93.2926 94.6937 89.036 99.4207C84.7794 104.059 79.237 106.378 72.4088 106.378ZM125.931 58.6737C127.149 56.88 129.169 55.8071 131.329 55.8071C136.582 55.8071 139.689 61.7245 136.726 66.0879L82.0701 146.589C80.8523 148.383 78.8321 149.456 76.6724 149.456C71.4191 149.456 68.3123 143.539 71.2748 139.175L125.931 58.6737ZM72.4088 95.4072C75.4238 95.4072 77.7738 94.1586 79.4587 91.6613C81.2323 89.164 82.1191 85.4626 82.1191 80.5572C82.1191 75.6517 81.2323 71.9504 79.4587 69.4531C77.7738 66.9558 75.4238 65.7071 72.4088 65.7071C69.4824 65.7071 67.1324 67.0004 65.3588 69.5869C63.5853 72.0842 62.6985 75.7409 62.6985 80.5572C62.6985 85.3734 63.5853 89.0748 65.3588 91.6613C67.1324 94.1586 69.4824 95.4072 72.4088 95.4072ZM135.592 150.526C131.158 150.526 127.168 149.501 123.621 147.449C120.162 145.309 117.457 142.276 115.507 138.352C113.556 134.428 112.58 129.879 112.58 124.706C112.58 119.533 113.556 114.984 115.507 111.06C117.457 107.136 120.162 104.148 123.621 102.096C127.168 99.9559 131.158 98.8856 135.592 98.8856C142.421 98.8856 147.963 101.249 152.219 105.976C156.565 110.614 158.737 116.857 158.737 124.706C158.737 132.555 156.565 138.842 152.219 143.57C147.963 148.207 142.421 150.526 135.592 150.526ZM135.592 139.556C138.607 139.556 140.957 138.307 142.642 135.81C144.416 133.224 145.303 129.522 145.303 124.706C145.303 119.89 144.416 116.233 142.642 113.736C140.957 111.149 138.607 109.856 135.592 109.856C132.666 109.856 130.316 111.105 128.542 113.602C126.769 116.099 125.882 119.801 125.882 124.706C125.882 129.611 126.769 133.313 128.542 135.81C130.316 138.307 132.666 139.556 135.592 139.556Z" fill="#FF3A44"/>
<path fill-rule="evenodd" clip-rule="evenodd" d="M71.7248 57.7872C65.1502 57.7872 59.8677 59.988 55.7442 64.3643C51.7215 68.6409 49.634 74.4609 49.634 81.9978C49.634 89.5273 51.7177 95.3958 55.7443 99.7647C59.8637 104.049 65.1458 106.208 71.7248 106.208C78.3067 106.208 83.5382 104.047 87.5641 99.7705C91.5942 95.401 93.6798 89.5307 93.6798 81.9978C93.6798 74.4607 91.5921 68.6405 87.5692 64.3639L87.5592 64.3533L87.5592 64.3532C83.5298 59.9874 78.2995 57.7872 71.7248 57.7872ZM53.4612 62.294C58.2159 57.2475 64.3482 54.7368 71.7248 54.7368C79.099 54.7368 85.1913 57.2464 89.8584 62.3002C94.5291 67.2683 96.7884 73.8919 96.7884 81.9978C96.7884 90.1079 94.5271 96.7704 89.8633 101.824L89.8534 101.834L89.8534 101.834C85.1829 106.799 79.0918 109.259 71.7248 109.259C64.3579 109.259 58.2286 106.8 53.4713 101.846L53.4502 101.824L53.4504 101.824C48.7867 96.7704 46.5254 90.1079 46.5254 81.9978C46.5254 73.889 48.7863 67.2636 53.4604 62.2949L53.4612 62.294ZM125.12 59.326C126.653 57.1219 129.198 55.8036 131.918 55.8036C138.534 55.8036 142.446 63.0746 138.715 68.436L82.8785 148.674C81.3447 150.878 78.8005 152.196 76.0806 152.196C69.4645 152.196 65.5518 144.925 69.2827 139.564L125.12 59.326ZM131.918 58.854C130.225 58.854 128.641 59.6745 127.687 61.0462L71.8499 141.284C69.528 144.621 71.9631 149.146 76.0806 149.146C77.7733 149.146 79.3568 148.326 80.3113 146.954L136.148 66.7158C138.47 63.3791 136.035 58.854 131.918 58.854ZM63.2503 70.1873C65.3285 67.236 68.1888 65.6712 71.7248 65.6712C75.311 65.6712 78.191 67.1587 80.2028 70.0586C82.2777 72.9187 83.1992 76.9746 83.1992 81.9978C83.1992 87.0211 82.2777 91.0769 80.2028 93.9371C78.191 96.837 75.311 98.3245 71.7248 98.3245C68.2084 98.3245 65.3467 96.8218 63.2578 93.9521L63.2429 93.9316L63.243 93.9315C61.1801 90.9963 60.2504 86.9537 60.2504 81.9978C60.2504 77.0535 61.1757 73.0439 63.2503 70.1873ZM71.7248 68.7216C69.2857 68.7216 67.347 69.7312 65.8021 71.9294L65.7876 71.9501L65.7874 71.95C64.2435 74.0709 63.3591 77.3473 63.3591 81.9978C63.3591 86.6357 64.2385 89.9685 65.7949 92.1893C67.3285 94.2908 69.266 95.2741 71.7248 95.2741C74.2928 95.2741 76.2106 94.2776 77.6409 92.2092L77.6619 92.1788L77.6623 92.1791C79.2035 90.0618 80.0906 86.7446 80.0906 81.9978C80.0906 77.2511 79.2035 73.9339 77.6623 71.8166L77.6406 71.7868L77.6409 71.7865C76.2106 69.7181 74.2928 68.7216 71.7248 68.7216ZM136.273 101.791C132.004 101.791 128.208 102.793 124.843 104.774L124.833 104.78L124.833 104.78C121.58 106.663 119.015 109.411 117.144 113.083C115.276 116.748 114.318 121.041 114.318 126.002C114.318 130.964 115.276 135.256 117.144 138.921C119.014 142.591 121.579 145.387 124.838 147.36C128.201 149.253 132.001 150.213 136.273 150.213C142.858 150.213 148.091 148.05 152.118 143.769L152.118 143.769C156.237 139.398 158.364 133.53 158.364 126.002C158.364 118.473 156.236 112.657 152.129 108.38L152.107 108.358L152.108 108.357C148.078 103.992 142.848 101.791 136.273 101.791ZM123.248 102.156C127.13 99.8718 131.485 98.7411 136.273 98.7411C143.645 98.7411 149.735 101.249 154.402 106.299C159.165 111.265 161.473 117.891 161.473 126.002C161.473 134.12 159.161 140.786 154.402 145.838C149.731 150.803 143.64 153.263 136.273 153.263C131.495 153.263 127.147 152.182 123.268 149.993L123.228 149.971L123.228 149.97C119.43 147.676 116.476 144.432 114.363 140.286C112.245 136.128 111.21 131.353 111.21 126.002C111.21 120.651 112.245 115.877 114.363 111.719C116.478 107.57 119.437 104.363 123.248 102.156ZM127.806 114.048C129.895 111.178 132.757 109.675 136.273 109.675C139.88 109.675 142.758 111.225 144.759 114.206C146.826 117.062 147.748 121.066 147.748 126.002C147.748 130.955 146.819 134.996 144.758 137.931C142.746 140.838 139.864 142.329 136.273 142.329C132.757 142.329 129.895 140.826 127.806 137.956C125.724 135.095 124.799 131.034 124.799 126.002C124.799 120.97 125.724 116.909 127.806 114.048ZM136.273 112.726C133.81 112.726 131.871 113.712 130.336 115.821C128.795 117.938 127.908 121.255 127.908 126.002C127.908 130.749 128.795 134.066 130.336 136.183C131.871 138.292 133.81 139.278 136.273 139.278C138.841 139.278 140.759 138.282 142.189 136.213L142.196 136.204C143.757 133.983 144.639 130.647 144.639 126.002C144.639 121.352 143.755 118.075 142.211 115.954L142.174 115.904L142.175 115.904C140.735 113.745 138.817 112.726 136.273 112.726Z" fill="#FF3A44"/>
</g>
</svg>
