<svg width="76" height="124" viewBox="0 0 76 124" fill="none" xmlns="http://www.w3.org/2000/svg">
<path d="M0.752001 104.664C0.752001 100.923 1.79467 97.948 3.88 95.74C6.088 93.348 9.00133 92.152 12.62 92.152C15.748 92.152 18.2013 92.9493 19.98 94.544C21.82 96.2 23.3227 98.6533 24.488 101.904C25.776 105.584 27.616 108.252 30.008 109.908C32.4613 111.564 36.0493 112.392 40.772 112.392C45.74 112.392 49.88 110.797 53.192 107.608C56.504 104.419 58.16 100.003 58.16 94.36C58.16 88.84 56.6267 84.5467 53.56 81.48C50.5547 78.352 46.2 76.6653 40.496 76.42C37.552 76.2973 35.2827 75.8067 33.688 74.948C30.376 73.1693 28.72 70.164 28.72 65.932C28.72 61.7613 30.376 58.7867 33.688 57.008C35.4667 56.1493 37.736 55.6587 40.496 55.536C45.5867 55.352 49.604 53.8493 52.548 51.028C55.5533 48.1453 57.056 44.128 57.056 38.976C57.056 33.824 55.5533 29.8067 52.548 26.924C49.5427 24.0413 45.6787 22.6 40.956 22.6C37.092 22.6 34.0253 23.3667 31.756 24.9C29.548 26.4333 27.7387 28.948 26.328 32.444C24.9787 35.8787 23.476 38.3013 21.82 39.712C20.1027 41.2453 17.68 42.012 14.552 42.012C11.424 42.012 8.78667 41 6.64 38.976C4.49333 36.8907 3.42 34.1307 3.42 30.696C3.42 27.6907 4.00267 24.6853 5.168 21.68C6.94667 17.0187 9.52267 13.1853 12.896 10.18C19.9493 3.98533 29.364 0.88799 41.14 0.88799C48.684 0.88799 55.4307 2.29866 61.38 5.11999C67.3907 7.94132 72.1747 12.1733 75.732 17.816C79.3507 23.4587 81.16 30.0827 81.16 37.688C81.16 50.4453 75.8547 59.6453 65.244 65.288C76.5907 71.0533 82.264 81.1733 82.264 95.648C82.264 103.683 80.424 110.644 76.744 116.532C73.064 122.42 68.1267 126.836 61.932 129.78C55.7987 132.663 48.8067 134.104 40.956 134.104C34.0253 134.104 28.1987 133.399 23.476 131.988C18.7533 130.516 14.4293 128.093 10.504 124.72C4.00267 119.077 0.752001 112.392 0.752001 104.664Z" fill="#E6EBEF"/>
</svg>
