<svg width="54" height="123" viewBox="0 0 54 123" fill="none" xmlns="http://www.w3.org/2000/svg">
<path d="M5.284 50.488C2.03333 47.2373 0.990667 43.7107 2.156 39.908C2.83067 37.7613 4.79333 35.0627 8.044 31.812L33.436 6.42C37.5453 2.31066 41.8387 0.255996 46.316 0.255996C49.9347 0.255996 52.8787 1.39066 55.148 3.65999C57.4787 6.05199 58.644 10.1 58.644 15.804V116.36C58.644 121.389 58.1227 124.947 57.08 127.032C55.1787 130.835 51.7133 132.736 46.684 132.736C41.6547 132.736 38.1893 130.835 36.288 127.032C35.2453 124.947 34.724 121.389 34.724 116.36V36.964L23.96 47.728C21.9973 49.6907 20.4947 51.0707 19.452 51.868C18.4093 52.604 17.244 53.1867 15.956 53.616C12.276 54.8427 8.71867 53.8 5.284 50.488Z" fill="#D0EDF5"/>
</svg>
