<svg width="69" height="124" viewBox="0 0 69 124" fill="none" xmlns="http://www.w3.org/2000/svg">
<path d="M76.8581 112.668C80.3541 114.508 82.1021 117.667 82.1021 122.144C82.1021 126.621 80.3541 129.78 76.8581 131.62C75.0794 132.54 71.7981 133 67.0141 133H16.6901C14.6048 133 12.9794 132.969 11.8141 132.908C10.6488 132.785 9.29943 132.448 7.76609 131.896C6.29409 131.344 5.06743 130.547 4.08609 129.504C1.87809 127.296 0.774094 124.444 0.774094 120.948C0.774094 118.617 1.29543 116.501 2.33809 114.6C3.38076 112.637 4.97543 110.368 7.12209 107.792L47.7861 58.48C50.9754 54.5547 53.3061 51.0893 54.7781 48.084C56.2501 45.0173 56.9861 41.552 56.9861 37.688C56.9861 33.2107 55.6061 29.592 52.8461 26.832C50.0861 24.0107 46.2221 22.6 41.2541 22.6C37.0834 22.6 33.6794 23.5813 31.0421 25.544C28.4661 27.4453 26.3194 30.604 24.6021 35.02C23.4368 37.9027 21.8728 40.172 19.9101 41.828C18.2541 43.1773 15.9848 43.852 13.1021 43.852C9.36076 43.852 6.50876 42.656 4.54609 40.264C2.64476 37.9333 1.69409 35.0813 1.69409 31.708C1.69409 28.028 2.67543 24.2253 4.63809 20.3C6.66209 16.3133 9.36076 12.9093 12.7341 10.088C20.2168 3.95466 29.5701 0.88799 40.7941 0.88799C53.0608 0.88799 62.8128 4.07733 70.0501 10.456C77.3488 16.7733 80.9981 25.6667 80.9981 37.136C80.9981 40.816 80.6914 44.0667 80.0781 46.888C79.5261 49.7093 78.4221 52.592 76.7661 55.536C75.1714 58.48 73.4848 61.1173 71.7061 63.448C69.9888 65.7787 67.4434 68.968 64.0701 73.016L32.2381 111.288H67.0141C71.7981 111.288 75.0794 111.748 76.8581 112.668Z" fill="#E6EBEF"/>
</svg>
