<svg width="19" height="20" viewBox="0 0 19 20" fill="none" xmlns="http://www.w3.org/2000/svg">
<path d="M9.38422 0.697217C6.78432 0.697217 4.66963 2.81185 4.66963 5.41181C4.66963 8.01177 6.78426 10.1264 9.38422 10.1264C11.9842 10.1264 14.0988 8.01171 14.0988 5.41181C14.0988 2.81191 11.9842 0.697217 9.38422 0.697217ZM9.38422 8.43649C7.71725 8.43649 6.35955 7.07879 6.35955 5.41181C6.35955 3.74484 7.71725 2.38714 9.38422 2.38714C11.0512 2.38714 12.4089 3.74484 12.4089 5.41181C12.4089 7.07879 11.0513 8.43649 9.38422 8.43649Z" fill="#85999F" stroke="#85999F" stroke-width="0.4"/>
<path d="M9.38461 11.45C4.68104 11.45 0.8 14.7359 0.8 18.8368C0.8 19.2803 1.20854 19.5897 1.64499 19.5897C2.08143 19.5897 2.48998 19.2803 2.48998 18.8368C2.48998 15.6216 5.55266 12.9557 9.38461 12.9557C13.2166 12.9557 16.2793 15.6216 16.2793 18.8368C16.2793 19.2803 16.6878 19.5897 17.1242 19.5897C17.5607 19.5897 17.9692 19.2803 17.9692 18.8368C17.9692 14.7359 14.0882 11.45 9.38461 11.45Z" fill="#85999F" stroke="#85999F" stroke-width="0.4"/>
</svg>
