<svg width="24" height="23" viewBox="0 0 24 23" fill="none" xmlns="http://www.w3.org/2000/svg">
<path d="M24 11.5004C24 17.8514 18.6275 23 11.9988 23C9.89525 23 7.91923 22.4804 6.19908 21.5704L1.97958 22.8646C0.974336 23.1729 0.0331321 22.2462 0.371669 21.2815L1.72095 17.4365C0.628915 15.7044 0 13.6705 0 11.4996C0.000797104 5.14858 5.37168 0 12.0004 0C18.6283 0.00153965 24 5.14935 24 11.5004ZM11.998 1.83372C6.43502 1.83372 1.90986 6.1709 1.90986 11.5027C1.90986 13.6182 2.62407 15.5766 3.83168 17.1701L2.57225 20.7598L6.44777 19.5704C8.04198 20.5804 9.94945 21.1686 11.998 21.1686C17.561 21.1686 22.0877 16.8322 22.0877 11.5004C22.0893 6.1709 17.5618 1.83372 11.998 1.83372ZM18.0592 14.1493C17.9843 14.0331 17.7882 13.9623 17.4948 13.8206C17.2023 13.679 15.754 12.9977 15.4853 12.9053C15.2143 12.8106 15.0182 12.7629 14.8221 13.0454C14.6285 13.3279 14.0641 13.9623 13.8911 14.1517C13.7198 14.3403 13.5484 14.3641 13.2542 14.2248C12.9601 14.0816 12.0116 13.786 10.8876 12.826C10.0132 12.0778 9.42257 11.1563 9.25199 10.8737C9.07901 10.592 9.23445 10.4396 9.38032 10.2995C9.51184 10.1724 9.67445 9.96998 9.82192 9.80447C9.96938 9.64049 10.018 9.52425 10.116 9.33564C10.2125 9.14704 10.1639 8.98306 10.0913 8.84065C10.018 8.699 9.43054 7.31332 9.18423 6.74904C8.93952 6.18553 8.69481 6.27868 8.52264 6.27868C8.35126 6.27868 8.15517 6.25558 7.95908 6.25558C7.763 6.25558 7.44415 6.32409 7.17553 6.60662C6.90691 6.88914 6.14647 7.57044 6.14647 8.95766C6.14647 10.3464 7.19944 11.6851 7.34691 11.873C7.49517 12.06 9.38271 15 12.3726 16.1286C15.3642 17.2564 15.3642 16.8799 15.903 16.8322C16.4435 16.7844 17.6439 16.1509 17.8878 15.4935C18.1333 14.8329 18.1333 14.2671 18.0592 14.1493Z" fill="#85999F"/>
</svg>
