<svg width="30" height="24" viewBox="0 0 30 24" fill="none" xmlns="http://www.w3.org/2000/svg">
<path d="M23.537 1.18877H6.76512C3.68154 1.18877 1.17754 3.83284 1.17754 7.07677V16.9029C1.17754 20.1475 3.68154 22.7909 6.76512 22.7909H23.537C26.6206 22.7909 29.1246 20.1469 29.1246 16.9029V7.07677C29.1246 3.83284 26.6206 1.18877 23.537 1.18877ZM27.888 16.9035C27.888 19.4391 25.9336 21.4969 23.537 21.4969H6.76512C4.36856 21.4969 2.41415 19.4385 2.41415 16.9035V7.07677C2.41415 4.5418 4.36856 2.48337 6.76512 2.48337H23.537C25.9336 2.48337 27.888 4.5418 27.888 7.07677V16.9035Z" fill="#85999F" stroke="#85999F" stroke-width="0.1"/>
<path d="M23.5367 0.95H6.76489C3.5551 0.95 0.95 3.70173 0.95 7.07691V16.9031C0.95 20.2789 3.55512 23.03 6.76489 23.03H23.5367C26.7465 23.03 29.3516 20.2783 29.3516 16.9031V7.07691C29.3516 3.70173 26.7465 0.95 23.5367 0.95ZM27.6604 16.9037C27.6604 19.3082 25.8069 21.2582 23.5367 21.2582H6.76489C4.49471 21.2582 2.64124 19.3076 2.64124 16.9037V7.07691C2.64124 4.67301 4.49471 2.72242 6.76489 2.72242H23.5367C25.8069 2.72242 27.6604 4.67301 27.6604 7.07691V16.9037ZM6.76489 1.28891H23.5367C26.5602 1.28891 29.0243 3.88316 29.0243 7.07691V16.9031C29.0243 20.0968 26.5602 22.6911 23.5367 22.6911H6.76489C3.74145 22.6911 1.27732 20.0974 1.27732 16.9031V7.07691C1.27732 3.88316 3.74145 1.28891 6.76489 1.28891ZM23.5367 21.5971C25.9935 21.5971 27.9877 19.4894 27.9877 16.9037V7.07691C27.9877 4.49184 25.9935 2.38351 23.5367 2.38351H6.76489C4.30812 2.38351 2.31393 4.49184 2.31393 7.07691V16.9037C2.31393 19.4888 4.30812 21.5971 6.76489 21.5971H23.5367Z" fill="#85999F" stroke="#85999F" stroke-width="0.1"/>
<path d="M12.3385 6.88433L12.3385 6.8843C12.1476 6.76707 11.9099 6.76507 11.7171 6.88107C11.5246 6.99685 11.407 7.21122 11.407 7.44237V17.1359C11.407 17.3665 11.5246 17.5814 11.7165 17.6972L11.7166 17.6973C11.8119 17.7545 11.9186 17.7832 12.0253 17.7832C12.1341 17.7832 12.242 17.7532 12.3385 17.694L12.3385 17.694L20.2123 12.8481C20.4016 12.7317 20.5174 12.5187 20.5174 12.2901C20.5174 12.0616 20.4023 11.8478 20.2122 11.7314L12.3385 6.88433ZM18.6791 12.2895L12.6436 16.0042V8.57356L18.6791 12.2895Z" fill="#85999F" stroke="#85999F" stroke-width="0.1"/>
<path d="M20.1598 11.8167L20.1597 11.8167L12.2859 6.9696L20.1598 11.8167ZM20.1598 11.8167C20.3187 11.9141 20.4173 12.0946 20.4173 12.2901C20.4173 12.4856 20.3182 12.6656 20.1598 12.763L20.1597 12.763M20.1598 11.8167L20.1597 12.763M20.1597 12.763L12.286 17.6089M20.1597 12.763L12.286 17.6089M12.4532 6.67823L12.4532 6.67826L20.3265 11.525M12.4532 6.67823L20.3265 11.525M12.4532 6.67823C12.1925 6.51812 11.8678 6.5151 11.604 6.67381C11.3407 6.83217 11.1795 7.12569 11.1795 7.44246V17.136C11.1795 17.452 11.3409 17.7463 11.6035 17.9047L11.6036 17.9048C11.734 17.9831 11.8797 18.0222 12.0251 18.0222C12.1739 18.0222 12.3217 17.9809 12.4531 17.9003L12.4532 17.9002L12.4532 6.67823ZM20.3265 11.525L20.3266 11.5251C20.587 11.6847 20.7446 11.9774 20.7446 12.2901C20.7446 12.6037 20.5859 12.8951 20.327 13.0544C20.327 13.0544 20.327 13.0544 20.327 13.0544L20.3265 11.525ZM12.286 17.6089C12.2051 17.6584 12.1153 17.6833 12.0251 17.6833C11.9364 17.6833 11.8475 17.6595 11.7678 17.6116C11.6074 17.5148 11.5068 17.3332 11.5068 17.136V7.44246C11.5068 7.24475 11.6074 7.06371 11.7684 6.96685C11.9291 6.87022 12.1267 6.8718 12.2859 6.96957L12.286 17.6089ZM12.5434 16.0937V16.1832L12.6196 16.1363L18.8005 12.3321L18.8697 12.2896L18.8005 12.247L12.6196 8.44157L12.5434 8.39465V8.48415V16.0937ZM12.8707 8.99049L18.2291 12.2895L12.8707 15.5875V8.99049Z" fill="#85999F" stroke="#85999F" stroke-width="0.1"/>
</svg>
